<svg width="62" height="62" viewBox="0 0 62 62" fill="none" xmlns="http://www.w3.org/2000/svg">
<path d="M61.1069 30.8769C61.1748 47.7172 47.5781 61.424 30.7379 61.4919C13.8977 61.5598 0.190892 47.9632 0.122968 31.1229C0.0550439 14.2827 13.6517 0.575904 30.4919 0.50798C47.3322 0.440056 61.0389 14.0367 61.1069 30.8769Z" fill="#FFD60A"/>
<path fill-rule="evenodd" clip-rule="evenodd" d="M24.1508 21.8207C24.1508 19.8791 24.9221 18.0171 26.295 16.6442C27.6679 15.2713 29.5299 14.5 31.4715 14.5C33.413 14.5 35.2751 15.2713 36.6479 16.6442C38.0208 18.0171 38.7921 19.8791 38.7921 21.8207C38.7921 23.7622 38.0208 25.6242 36.6479 26.9971C35.2751 28.37 33.413 29.1413 31.4715 29.1413C29.5299 29.1413 27.6679 28.37 26.295 26.9971C24.9221 25.6242 24.1508 23.7622 24.1508 21.8207ZM24.1508 32.8016C21.7239 32.8016 19.3963 33.7657 17.6802 35.4818C15.9641 37.1979 15 39.5255 15 41.9524C15 43.4086 15.5785 44.8051 16.6081 45.8348C17.6378 46.8645 19.0343 47.4429 20.4905 47.4429H42.4524C43.9086 47.4429 45.3051 46.8645 46.3348 45.8348C47.3645 44.8051 47.9429 43.4086 47.9429 41.9524C47.9429 39.5255 46.9788 37.1979 45.2627 35.4818C43.5466 33.7657 41.2191 32.8016 38.7921 32.8016H24.1508Z" fill="white"/>
</svg>
