<svg width="318" height="45" viewBox="0 0 318 45" fill="none" xmlns="http://www.w3.org/2000/svg">
<path d="M273 1.5C296.522 1.5 315.68 20.1702 316.471 43.5H45C21.4777 43.5 2.31993 24.8298 1.5293 1.5H273Z" fill="#7E7DFF" stroke="#7E7DFF" stroke-width="3"/>
<path d="M75.0197 15.38H78.0997L83.8417 31H80.7177L79.2657 27.106H73.8097L72.3797 31H69.2557L75.0197 15.38ZM78.7157 24.972L76.5597 18.526L74.3157 24.972H78.7157ZM85.1825 14.94H88.1305V27.304C88.1305 27.832 88.2185 28.1913 88.3945 28.382C88.5705 28.558 88.8125 28.646 89.1205 28.646C89.3552 28.646 89.5972 28.6167 89.8465 28.558C90.0958 28.4993 90.3158 28.426 90.5065 28.338L90.9025 30.582C90.5065 30.7727 90.0445 30.9193 89.5165 31.022C88.9885 31.1247 88.5118 31.176 88.0865 31.176C87.1625 31.176 86.4438 30.934 85.9305 30.45C85.4318 29.9513 85.1825 29.2473 85.1825 28.338V14.94ZM92.1649 14.94H95.1129V27.304C95.1129 27.832 95.2009 28.1913 95.3769 28.382C95.5529 28.558 95.7949 28.646 96.1029 28.646C96.3376 28.646 96.5796 28.6167 96.8289 28.558C97.0782 28.4993 97.2982 28.426 97.4889 28.338L97.8849 30.582C97.4889 30.7727 97.0269 30.9193 96.4989 31.022C95.9709 31.1247 95.4942 31.176 95.0689 31.176C94.1449 31.176 93.4262 30.934 92.9129 30.45C92.4142 29.9513 92.1649 29.2473 92.1649 28.338V14.94ZM99.1693 31V19.472H102.117V31H99.1693ZM99.1693 17.866V14.94H102.117V17.866H99.1693ZM103.985 27.59C103.985 26.842 104.19 26.1893 104.601 25.632C105.026 25.06 105.613 24.62 106.361 24.312C107.109 24.004 107.967 23.85 108.935 23.85C109.419 23.85 109.91 23.8867 110.409 23.96C110.907 24.0333 111.34 24.1507 111.707 24.312V23.696C111.707 22.9627 111.487 22.398 111.047 22.002C110.621 21.606 109.983 21.408 109.133 21.408C108.502 21.408 107.901 21.518 107.329 21.738C106.757 21.958 106.155 22.2807 105.525 22.706L104.579 20.77C105.341 20.2713 106.119 19.8973 106.911 19.648C107.717 19.3987 108.561 19.274 109.441 19.274C111.083 19.274 112.359 19.6847 113.269 20.506C114.193 21.3273 114.655 22.5007 114.655 24.026V27.7C114.655 28.008 114.706 28.228 114.809 28.36C114.926 28.492 115.109 28.5727 115.359 28.602V31C115.095 31.044 114.853 31.0807 114.633 31.11C114.427 31.1393 114.251 31.154 114.105 31.154C113.518 31.154 113.071 31.022 112.763 30.758C112.469 30.494 112.286 30.1713 112.213 29.79L112.147 29.196C111.648 29.8413 111.025 30.34 110.277 30.692C109.529 31.044 108.766 31.22 107.989 31.22C107.226 31.22 106.537 31.066 105.921 30.758C105.319 30.4353 104.843 30.0027 104.491 29.46C104.153 28.9027 103.985 28.2793 103.985 27.59ZM111.157 28.184C111.318 28.008 111.45 27.832 111.553 27.656C111.655 27.48 111.707 27.3187 111.707 27.172V26.006C111.355 25.8593 110.973 25.7493 110.563 25.676C110.152 25.588 109.763 25.544 109.397 25.544C108.634 25.544 108.003 25.7127 107.505 26.05C107.021 26.3727 106.779 26.8053 106.779 27.348C106.779 27.6413 106.859 27.92 107.021 28.184C107.182 28.448 107.417 28.6607 107.725 28.822C108.033 28.9833 108.399 29.064 108.825 29.064C109.265 29.064 109.697 28.9833 110.123 28.822C110.548 28.646 110.893 28.4333 111.157 28.184ZM128.124 31H125.176V24.532C125.176 23.608 125.014 22.9333 124.692 22.508C124.369 22.0827 123.922 21.87 123.35 21.87C122.954 21.87 122.55 21.9727 122.14 22.178C121.744 22.3833 121.384 22.6693 121.062 23.036C120.739 23.388 120.504 23.7987 120.358 24.268V31H117.41V19.472H120.072V21.606C120.365 21.1073 120.739 20.6893 121.194 20.352C121.648 20 122.169 19.736 122.756 19.56C123.357 19.3693 123.988 19.274 124.648 19.274C125.366 19.274 125.953 19.406 126.408 19.67C126.877 19.9193 127.229 20.264 127.464 20.704C127.713 21.1293 127.882 21.6133 127.97 22.156C128.072 22.6987 128.124 23.2487 128.124 23.806V31ZM136.055 31.22C135.116 31.22 134.273 31.066 133.525 30.758C132.777 30.4353 132.139 29.9953 131.611 29.438C131.083 28.866 130.672 28.2207 130.379 27.502C130.1 26.7833 129.961 26.028 129.961 25.236C129.961 24.1507 130.203 23.1607 130.687 22.266C131.186 21.3567 131.89 20.6307 132.799 20.088C133.708 19.5453 134.786 19.274 136.033 19.274C137.28 19.274 138.35 19.5453 139.245 20.088C140.14 20.6307 140.807 21.342 141.247 22.222L138.365 23.102C138.116 22.6767 137.786 22.354 137.375 22.134C136.964 21.8993 136.51 21.782 136.011 21.782C135.454 21.782 134.94 21.9287 134.471 22.222C134.016 22.5007 133.657 22.904 133.393 23.432C133.129 23.9453 132.997 24.5467 132.997 25.236C132.997 25.9107 133.129 26.512 133.393 27.04C133.672 27.5533 134.038 27.964 134.493 28.272C134.948 28.5653 135.454 28.712 136.011 28.712C136.363 28.712 136.693 28.6533 137.001 28.536C137.324 28.4187 137.61 28.2573 137.859 28.052C138.108 27.8467 138.292 27.612 138.409 27.348L141.291 28.228C141.027 28.8 140.638 29.3133 140.125 29.768C139.626 30.2227 139.032 30.582 138.343 30.846C137.668 31.0953 136.906 31.22 136.055 31.22ZM148.343 31.22C147.419 31.22 146.583 31.066 145.835 30.758C145.087 30.4353 144.449 30.0027 143.921 29.46C143.393 28.9027 142.983 28.272 142.689 27.568C142.411 26.8493 142.271 26.094 142.271 25.302C142.271 24.202 142.513 23.1973 142.997 22.288C143.496 21.3787 144.2 20.6527 145.109 20.11C146.033 19.5527 147.119 19.274 148.365 19.274C149.627 19.274 150.705 19.5527 151.599 20.11C152.494 20.6527 153.176 21.3787 153.645 22.288C154.129 23.1827 154.371 24.1507 154.371 25.192C154.371 25.368 154.364 25.5513 154.349 25.742C154.335 25.918 154.32 26.0647 154.305 26.182H145.395C145.454 26.7687 145.623 27.282 145.901 27.722C146.195 28.162 146.561 28.4993 147.001 28.734C147.456 28.954 147.94 29.064 148.453 29.064C149.04 29.064 149.59 28.9247 150.103 28.646C150.631 28.3527 150.991 27.9713 151.181 27.502L153.711 28.206C153.433 28.7927 153.029 29.3133 152.501 29.768C151.988 30.2227 151.379 30.582 150.675 30.846C149.971 31.0953 149.194 31.22 148.343 31.22ZM145.329 24.312H151.357C151.299 23.7253 151.13 23.2193 150.851 22.794C150.587 22.354 150.235 22.0167 149.795 21.782C149.355 21.5327 148.864 21.408 148.321 21.408C147.793 21.408 147.309 21.5327 146.869 21.782C146.444 22.0167 146.092 22.354 145.813 22.794C145.549 23.2193 145.388 23.7253 145.329 24.312ZM161.739 31V15.38H168.361C169.079 15.38 169.739 15.5267 170.341 15.82C170.942 16.1133 171.463 16.5093 171.903 17.008C172.357 17.5067 172.709 18.064 172.959 18.68C173.208 19.296 173.333 19.9267 173.333 20.572C173.333 21.452 173.127 22.288 172.717 23.08C172.306 23.872 171.741 24.5173 171.023 25.016C170.304 25.5147 169.453 25.764 168.471 25.764H164.775V31H161.739ZM164.775 23.102H168.295C168.661 23.102 168.991 22.9993 169.285 22.794C169.578 22.5887 169.813 22.2953 169.989 21.914C170.165 21.518 170.253 21.0707 170.253 20.572C170.253 20.0293 170.15 19.5673 169.945 19.186C169.754 18.8047 169.497 18.5187 169.175 18.328C168.867 18.1373 168.529 18.042 168.163 18.042H164.775V23.102ZM174.217 27.59C174.217 26.842 174.423 26.1893 174.833 25.632C175.259 25.06 175.845 24.62 176.593 24.312C177.341 24.004 178.199 23.85 179.167 23.85C179.651 23.85 180.143 23.8867 180.641 23.96C181.14 24.0333 181.573 24.1507 181.939 24.312V23.696C181.939 22.9627 181.719 22.398 181.279 22.002C180.854 21.606 180.216 21.408 179.365 21.408C178.735 21.408 178.133 21.518 177.561 21.738C176.989 21.958 176.388 22.2807 175.757 22.706L174.811 20.77C175.574 20.2713 176.351 19.8973 177.143 19.648C177.95 19.3987 178.793 19.274 179.673 19.274C181.316 19.274 182.592 19.6847 183.501 20.506C184.425 21.3273 184.887 22.5007 184.887 24.026V27.7C184.887 28.008 184.939 28.228 185.041 28.36C185.159 28.492 185.342 28.5727 185.591 28.602V31C185.327 31.044 185.085 31.0807 184.865 31.11C184.66 31.1393 184.484 31.154 184.337 31.154C183.751 31.154 183.303 31.022 182.995 30.758C182.702 30.494 182.519 30.1713 182.445 29.79L182.379 29.196C181.881 29.8413 181.257 30.34 180.509 30.692C179.761 31.044 178.999 31.22 178.221 31.22C177.459 31.22 176.769 31.066 176.153 30.758C175.552 30.4353 175.075 30.0027 174.723 29.46C174.386 28.9027 174.217 28.2793 174.217 27.59ZM181.389 28.184C181.551 28.008 181.683 27.832 181.785 27.656C181.888 27.48 181.939 27.3187 181.939 27.172V26.006C181.587 25.8593 181.206 25.7493 180.795 25.676C180.385 25.588 179.996 25.544 179.629 25.544C178.867 25.544 178.236 25.7127 177.737 26.05C177.253 26.3727 177.011 26.8053 177.011 27.348C177.011 27.6413 177.092 27.92 177.253 28.184C177.415 28.448 177.649 28.6607 177.957 28.822C178.265 28.9833 178.632 29.064 179.057 29.064C179.497 29.064 179.93 28.9833 180.355 28.822C180.781 28.646 181.125 28.4333 181.389 28.184ZM194.506 22.024C193.611 22.024 192.812 22.2 192.108 22.552C191.404 22.8893 190.898 23.3807 190.59 24.026V31H187.642V19.472H190.348V21.936C190.759 21.144 191.279 20.5207 191.91 20.066C192.541 19.6113 193.208 19.362 193.912 19.318C194.073 19.318 194.198 19.318 194.286 19.318C194.374 19.318 194.447 19.3253 194.506 19.34V22.024ZM203.058 30.406C202.808 30.5087 202.508 30.626 202.156 30.758C201.804 30.89 201.422 30.9927 201.012 31.066C200.616 31.154 200.212 31.198 199.802 31.198C199.259 31.198 198.76 31.1027 198.306 30.912C197.851 30.7213 197.484 30.4207 197.206 30.01C196.942 29.5847 196.81 29.0347 196.81 28.36V21.738H195.292V19.472H196.81V15.732H199.758V19.472H202.178V21.738H199.758V27.37C199.772 27.766 199.882 28.052 200.088 28.228C200.293 28.404 200.55 28.492 200.858 28.492C201.166 28.492 201.466 28.4407 201.76 28.338C202.053 28.2353 202.288 28.1473 202.464 28.074L203.058 30.406ZM215.307 31H212.359V24.532C212.359 23.608 212.198 22.9333 211.875 22.508C211.552 22.0827 211.105 21.87 210.533 21.87C210.137 21.87 209.734 21.9727 209.323 22.178C208.927 22.3833 208.568 22.6693 208.245 23.036C207.922 23.388 207.688 23.7987 207.541 24.268V31H204.593V19.472H207.255V21.606C207.548 21.1073 207.922 20.6893 208.377 20.352C208.832 20 209.352 19.736 209.939 19.56C210.54 19.3693 211.171 19.274 211.831 19.274C212.55 19.274 213.136 19.406 213.591 19.67C214.06 19.9193 214.412 20.264 214.647 20.704C214.896 21.1293 215.065 21.6133 215.153 22.156C215.256 22.6987 215.307 23.2487 215.307 23.806V31ZM223.217 31.22C222.293 31.22 221.457 31.066 220.709 30.758C219.961 30.4353 219.323 30.0027 218.795 29.46C218.267 28.9027 217.856 28.272 217.563 27.568C217.284 26.8493 217.145 26.094 217.145 25.302C217.145 24.202 217.387 23.1973 217.871 22.288C218.369 21.3787 219.073 20.6527 219.983 20.11C220.907 19.5527 221.992 19.274 223.239 19.274C224.5 19.274 225.578 19.5527 226.473 20.11C227.367 20.6527 228.049 21.3787 228.519 22.288C229.003 23.1827 229.245 24.1507 229.245 25.192C229.245 25.368 229.237 25.5513 229.223 25.742C229.208 25.918 229.193 26.0647 229.179 26.182H220.269C220.327 26.7687 220.496 27.282 220.775 27.722C221.068 28.162 221.435 28.4993 221.875 28.734C222.329 28.954 222.813 29.064 223.327 29.064C223.913 29.064 224.463 28.9247 224.977 28.646C225.505 28.3527 225.864 27.9713 226.055 27.502L228.585 28.206C228.306 28.7927 227.903 29.3133 227.375 29.768C226.861 30.2227 226.253 30.582 225.549 30.846C224.845 31.0953 224.067 31.22 223.217 31.22ZM220.203 24.312H226.231C226.172 23.7253 226.003 23.2193 225.725 22.794C225.461 22.354 225.109 22.0167 224.669 21.782C224.229 21.5327 223.737 21.408 223.195 21.408C222.667 21.408 222.183 21.5327 221.743 21.782C221.317 22.0167 220.965 22.354 220.687 22.794C220.423 23.2193 220.261 23.7253 220.203 24.312ZM237.904 22.024C237.01 22.024 236.21 22.2 235.506 22.552C234.802 22.8893 234.296 23.3807 233.988 24.026V31H231.04V19.472H233.746V21.936C234.157 21.144 234.678 20.5207 235.308 20.066C235.939 19.6113 236.606 19.362 237.31 19.318C237.472 19.318 237.596 19.318 237.684 19.318C237.772 19.318 237.846 19.3253 237.904 19.34V22.024ZM243.794 31.22C242.812 31.22 241.873 31.0587 240.978 30.736C240.084 30.4133 239.314 29.9367 238.668 29.306L239.724 27.392C240.414 27.9493 241.088 28.36 241.748 28.624C242.423 28.888 243.068 29.02 243.684 29.02C244.256 29.02 244.711 28.9173 245.048 28.712C245.4 28.5067 245.576 28.1987 245.576 27.788C245.576 27.5093 245.481 27.2967 245.29 27.15C245.1 26.9887 244.821 26.8493 244.454 26.732C244.102 26.6147 243.67 26.4827 243.156 26.336C242.306 26.0573 241.594 25.786 241.022 25.522C240.45 25.258 240.018 24.928 239.724 24.532C239.446 24.1213 239.306 23.6007 239.306 22.97C239.306 22.2073 239.497 21.5547 239.878 21.012C240.274 20.4547 240.817 20.022 241.506 19.714C242.21 19.406 243.032 19.252 243.97 19.252C244.792 19.252 245.569 19.384 246.302 19.648C247.036 19.8973 247.703 20.308 248.304 20.88L247.116 22.75C246.53 22.2953 245.972 21.9653 245.444 21.76C244.916 21.54 244.381 21.43 243.838 21.43C243.53 21.43 243.237 21.4667 242.958 21.54C242.694 21.6133 242.474 21.738 242.298 21.914C242.137 22.0753 242.056 22.31 242.056 22.618C242.056 22.8967 242.13 23.1167 242.276 23.278C242.438 23.4247 242.672 23.5567 242.98 23.674C243.303 23.7913 243.692 23.9233 244.146 24.07C245.07 24.334 245.848 24.6053 246.478 24.884C247.124 25.1627 247.608 25.5073 247.93 25.918C248.253 26.314 248.414 26.864 248.414 27.568C248.414 28.712 247.996 29.6067 247.16 30.252C246.324 30.8973 245.202 31.22 243.794 31.22Z" fill="black"/>
</svg>
