<svg width="318" height="45" viewBox="0 0 318 45" fill="none" xmlns="http://www.w3.org/2000/svg">
<path d="M45 43.5C21.4777 43.5 2.31993 24.8298 1.5293 1.5L273 1.5C296.522 1.5 315.68 20.1702 316.471 43.5L45 43.5Z" fill="#FFD60A" stroke="#FFD60A" stroke-width="3"/>
<path d="M81.3955 26.974C81.3955 27.854 81.1681 28.5947 80.7135 29.196C80.2588 29.7827 79.6428 30.23 78.8655 30.538C78.1028 30.846 77.2668 31 76.3575 31H68.8115V15.38H77.1715C77.9048 15.38 78.5355 15.578 79.0635 15.974C79.6061 16.3553 80.0168 16.854 80.2955 17.47C80.5888 18.0713 80.7355 18.702 80.7355 19.362C80.7355 20.11 80.5448 20.8213 80.1635 21.496C79.7821 22.1707 79.2248 22.6693 78.4915 22.992C79.3861 23.256 80.0901 23.7327 80.6035 24.422C81.1315 25.1113 81.3955 25.962 81.3955 26.974ZM78.3375 26.402C78.3375 26.006 78.2568 25.654 78.0955 25.346C77.9341 25.0233 77.7141 24.774 77.4355 24.598C77.1715 24.4073 76.8635 24.312 76.5115 24.312H71.8475V28.426H76.3575C76.7241 28.426 77.0541 28.338 77.3475 28.162C77.6555 27.9713 77.8975 27.722 78.0735 27.414C78.2495 27.106 78.3375 26.7687 78.3375 26.402ZM71.8475 17.976V21.914H75.8955C76.2328 21.914 76.5408 21.8333 76.8195 21.672C77.0981 21.5107 77.3181 21.2833 77.4795 20.99C77.6555 20.6967 77.7435 20.3447 77.7435 19.934C77.7435 19.538 77.6628 19.1933 77.5015 18.9C77.3548 18.6067 77.1495 18.3793 76.8855 18.218C76.6361 18.0567 76.3501 17.976 76.0275 17.976H71.8475ZM94.6106 28.338V31H83.7646V15.38H94.4126V18.042H86.8006V21.804H93.3786V24.268H86.8006V28.338H94.6106ZM96.9775 31V15.38H100.013V28.338H107.977V31H96.9775ZM108.535 23.08C108.535 22.1267 108.704 21.1953 109.041 20.286C109.393 19.362 109.899 18.526 110.559 17.778C111.219 17.0153 112.026 16.414 112.979 15.974C113.933 15.5193 115.018 15.292 116.235 15.292C117.673 15.292 118.912 15.6073 119.953 16.238C121.009 16.8687 121.794 17.69 122.307 18.702L119.975 20.308C119.711 19.7213 119.367 19.2593 118.941 18.922C118.516 18.57 118.061 18.328 117.577 18.196C117.093 18.0493 116.617 17.976 116.147 17.976C115.385 17.976 114.717 18.13 114.145 18.438C113.588 18.746 113.119 19.1493 112.737 19.648C112.356 20.1467 112.07 20.704 111.879 21.32C111.703 21.936 111.615 22.552 111.615 23.168C111.615 23.8573 111.725 24.5247 111.945 25.17C112.165 25.8007 112.473 26.3653 112.869 26.864C113.28 27.348 113.764 27.7367 114.321 28.03C114.893 28.3087 115.517 28.448 116.191 28.448C116.675 28.448 117.167 28.3673 117.665 28.206C118.164 28.0447 118.626 27.788 119.051 27.436C119.477 27.084 119.807 26.6293 120.041 26.072L122.527 27.502C122.219 28.2793 121.713 28.9393 121.009 29.482C120.32 30.0247 119.543 30.4353 118.677 30.714C117.812 30.9927 116.954 31.132 116.103 31.132C114.989 31.132 113.969 30.9047 113.045 30.45C112.121 29.9807 111.322 29.3647 110.647 28.602C109.987 27.8247 109.467 26.9593 109.085 26.006C108.719 25.038 108.535 24.0627 108.535 23.08ZM131.036 31.11C129.892 31.11 128.851 30.89 127.912 30.45C126.988 30.01 126.189 29.416 125.514 28.668C124.854 27.9053 124.341 27.0547 123.974 26.116C123.607 25.1627 123.424 24.1873 123.424 23.19C123.424 22.1487 123.615 21.1587 123.996 20.22C124.392 19.2667 124.927 18.4233 125.602 17.69C126.291 16.942 127.098 16.3553 128.022 15.93C128.961 15.49 129.987 15.27 131.102 15.27C132.231 15.27 133.258 15.4973 134.182 15.952C135.121 16.4067 135.92 17.0153 136.58 17.778C137.24 18.5407 137.753 19.3913 138.12 20.33C138.487 21.2687 138.67 22.2367 138.67 23.234C138.67 24.2607 138.479 25.2507 138.098 26.204C137.717 27.1427 137.181 27.986 136.492 28.734C135.817 29.4673 135.011 30.0467 134.072 30.472C133.148 30.8973 132.136 31.11 131.036 31.11ZM126.504 23.19C126.504 23.8647 126.607 24.5173 126.812 25.148C127.017 25.7787 127.311 26.3433 127.692 26.842C128.088 27.326 128.565 27.7147 129.122 28.008C129.694 28.2867 130.339 28.426 131.058 28.426C131.791 28.426 132.444 28.2793 133.016 27.986C133.588 27.678 134.065 27.2747 134.446 26.776C134.827 26.2627 135.113 25.698 135.304 25.082C135.509 24.4513 135.612 23.8207 135.612 23.19C135.612 22.5153 135.502 21.87 135.282 21.254C135.077 20.6233 134.776 20.066 134.38 19.582C133.999 19.0833 133.522 18.6947 132.95 18.416C132.393 18.1227 131.762 17.976 131.058 17.976C130.31 17.976 129.65 18.13 129.078 18.438C128.521 18.7313 128.051 19.1273 127.67 19.626C127.289 20.1247 126.995 20.682 126.79 21.298C126.599 21.914 126.504 22.5447 126.504 23.19ZM157.13 28.338V31H146.284V15.38H156.932V18.042H149.32V21.804H155.898V24.268H149.32V28.338H157.13ZM158.292 25.236C158.292 24.1213 158.512 23.1167 158.952 22.222C159.392 21.3127 160.001 20.594 160.778 20.066C161.556 19.538 162.443 19.274 163.44 19.274C164.291 19.274 165.054 19.4867 165.728 19.912C166.418 20.3227 166.953 20.8507 167.334 21.496V14.94H170.282V27.7C170.282 28.008 170.334 28.228 170.436 28.36C170.539 28.492 170.715 28.5727 170.964 28.602V31C170.451 31.1027 170.033 31.154 169.71 31.154C169.182 31.154 168.742 31.022 168.39 30.758C168.053 30.494 167.862 30.1493 167.818 29.724L167.774 28.998C167.349 29.7167 166.77 30.2667 166.036 30.648C165.318 31.0293 164.562 31.22 163.77 31.22C162.978 31.22 162.245 31.066 161.57 30.758C160.91 30.45 160.331 30.0247 159.832 29.482C159.348 28.9393 158.967 28.3087 158.688 27.59C158.424 26.8567 158.292 26.072 158.292 25.236ZM167.334 26.776V24.026C167.188 23.6007 166.953 23.2193 166.63 22.882C166.308 22.5447 165.948 22.2807 165.552 22.09C165.156 21.8847 164.76 21.782 164.364 21.782C163.91 21.782 163.499 21.8773 163.132 22.068C162.766 22.2587 162.443 22.5153 162.164 22.838C161.9 23.1607 161.695 23.5347 161.548 23.96C161.416 24.3853 161.35 24.8327 161.35 25.302C161.35 25.7713 161.424 26.2187 161.57 26.644C161.732 27.0547 161.959 27.414 162.252 27.722C162.546 28.03 162.883 28.272 163.264 28.448C163.66 28.624 164.086 28.712 164.54 28.712C164.819 28.712 165.098 28.668 165.376 28.58C165.67 28.4773 165.941 28.3453 166.19 28.184C166.454 28.008 166.682 27.8027 166.872 27.568C167.078 27.3187 167.232 27.0547 167.334 26.776ZM173.066 26.688V19.472H176.014V26.05C176.014 26.93 176.175 27.5973 176.498 28.052C176.821 28.492 177.297 28.712 177.928 28.712C178.309 28.712 178.683 28.6387 179.05 28.492C179.431 28.3307 179.776 28.096 180.084 27.788C180.407 27.48 180.678 27.0913 180.898 26.622V19.472H183.846V27.7C183.846 28.008 183.897 28.228 184 28.36C184.117 28.492 184.301 28.5727 184.55 28.602V31C184.257 31.044 184.007 31.0733 183.802 31.088C183.611 31.1173 183.435 31.132 183.274 31.132C182.746 31.132 182.313 31.0147 181.976 30.78C181.653 30.5307 181.463 30.1933 181.404 29.768L181.338 28.844C180.825 29.6213 180.165 30.2153 179.358 30.626C178.551 31.022 177.664 31.22 176.696 31.22C175.508 31.22 174.606 30.8387 173.99 30.076C173.374 29.2987 173.066 28.1693 173.066 26.688ZM192.143 31.22C191.205 31.22 190.361 31.066 189.613 30.758C188.865 30.4353 188.227 29.9953 187.699 29.438C187.171 28.866 186.761 28.2207 186.467 27.502C186.189 26.7833 186.049 26.028 186.049 25.236C186.049 24.1507 186.291 23.1607 186.775 22.266C187.274 21.3567 187.978 20.6307 188.887 20.088C189.797 19.5453 190.875 19.274 192.121 19.274C193.368 19.274 194.439 19.5453 195.333 20.088C196.228 20.6307 196.895 21.342 197.335 22.222L194.453 23.102C194.204 22.6767 193.874 22.354 193.463 22.134C193.053 21.8993 192.598 21.782 192.099 21.782C191.542 21.782 191.029 21.9287 190.559 22.222C190.105 22.5007 189.745 22.904 189.481 23.432C189.217 23.9453 189.085 24.5467 189.085 25.236C189.085 25.9107 189.217 26.512 189.481 27.04C189.76 27.5533 190.127 27.964 190.581 28.272C191.036 28.5653 191.542 28.712 192.099 28.712C192.451 28.712 192.781 28.6533 193.089 28.536C193.412 28.4187 193.698 28.2573 193.947 28.052C194.197 27.8467 194.38 27.612 194.497 27.348L197.379 28.228C197.115 28.8 196.727 29.3133 196.213 29.768C195.715 30.2227 195.121 30.582 194.431 30.846C193.757 31.0953 192.994 31.22 192.143 31.22ZM198.401 27.59C198.401 26.842 198.607 26.1893 199.017 25.632C199.443 25.06 200.029 24.62 200.777 24.312C201.525 24.004 202.383 23.85 203.351 23.85C203.835 23.85 204.327 23.8867 204.825 23.96C205.324 24.0333 205.757 24.1507 206.123 24.312V23.696C206.123 22.9627 205.903 22.398 205.463 22.002C205.038 21.606 204.4 21.408 203.549 21.408C202.919 21.408 202.317 21.518 201.745 21.738C201.173 21.958 200.572 22.2807 199.941 22.706L198.995 20.77C199.758 20.2713 200.535 19.8973 201.327 19.648C202.134 19.3987 202.977 19.274 203.857 19.274C205.5 19.274 206.776 19.6847 207.685 20.506C208.609 21.3273 209.071 22.5007 209.071 24.026V27.7C209.071 28.008 209.123 28.228 209.225 28.36C209.343 28.492 209.526 28.5727 209.775 28.602V31C209.511 31.044 209.269 31.0807 209.049 31.11C208.844 31.1393 208.668 31.154 208.521 31.154C207.935 31.154 207.487 31.022 207.179 30.758C206.886 30.494 206.703 30.1713 206.629 29.79L206.563 29.196C206.065 29.8413 205.441 30.34 204.693 30.692C203.945 31.044 203.183 31.22 202.405 31.22C201.643 31.22 200.953 31.066 200.337 30.758C199.736 30.4353 199.259 30.0027 198.907 29.46C198.57 28.9027 198.401 28.2793 198.401 27.59ZM205.573 28.184C205.735 28.008 205.867 27.832 205.969 27.656C206.072 27.48 206.123 27.3187 206.123 27.172V26.006C205.771 25.8593 205.39 25.7493 204.979 25.676C204.569 25.588 204.18 25.544 203.813 25.544C203.051 25.544 202.42 25.7127 201.921 26.05C201.437 26.3727 201.195 26.8053 201.195 27.348C201.195 27.6413 201.276 27.92 201.437 28.184C201.599 28.448 201.833 28.6607 202.141 28.822C202.449 28.9833 202.816 29.064 203.241 29.064C203.681 29.064 204.114 28.9833 204.539 28.822C204.965 28.646 205.309 28.4333 205.573 28.184ZM218.627 30.406C218.377 30.5087 218.077 30.626 217.725 30.758C217.373 30.89 216.991 30.9927 216.581 31.066C216.185 31.154 215.781 31.198 215.371 31.198C214.828 31.198 214.329 31.1027 213.875 30.912C213.42 30.7213 213.053 30.4207 212.775 30.01C212.511 29.5847 212.379 29.0347 212.379 28.36V21.738H210.861V19.472H212.379V15.732H215.327V19.472H217.747V21.738H215.327V27.37C215.341 27.766 215.451 28.052 215.657 28.228C215.862 28.404 216.119 28.492 216.427 28.492C216.735 28.492 217.035 28.4407 217.329 28.338C217.622 28.2353 217.857 28.1473 218.033 28.074L218.627 30.406ZM220.162 31V19.472H223.11V31H220.162ZM220.162 17.866V14.94H223.11V17.866H220.162ZM231.094 31.22C230.155 31.22 229.312 31.066 228.564 30.758C227.816 30.4353 227.178 29.9953 226.65 29.438C226.136 28.8807 225.74 28.2427 225.462 27.524C225.183 26.8053 225.044 26.05 225.044 25.258C225.044 24.4513 225.183 23.6887 225.462 22.97C225.74 22.2513 226.136 21.6133 226.65 21.056C227.178 20.4987 227.816 20.066 228.564 19.758C229.312 19.4353 230.155 19.274 231.094 19.274C232.032 19.274 232.868 19.4353 233.602 19.758C234.35 20.066 234.988 20.4987 235.516 21.056C236.044 21.6133 236.44 22.2513 236.704 22.97C236.982 23.6887 237.122 24.4513 237.122 25.258C237.122 26.05 236.982 26.8053 236.704 27.524C236.44 28.2427 236.044 28.8807 235.516 29.438C235.002 29.9953 234.372 30.4353 233.624 30.758C232.876 31.066 232.032 31.22 231.094 31.22ZM228.08 25.258C228.08 25.9327 228.212 26.534 228.476 27.062C228.74 27.5753 229.099 27.9787 229.554 28.272C230.008 28.5653 230.522 28.712 231.094 28.712C231.651 28.712 232.157 28.5653 232.612 28.272C233.066 27.964 233.426 27.5533 233.69 27.04C233.968 26.512 234.108 25.9107 234.108 25.236C234.108 24.576 233.968 23.982 233.69 23.454C233.426 22.926 233.066 22.5153 232.612 22.222C232.157 21.9287 231.651 21.782 231.094 21.782C230.522 21.782 230.008 21.936 229.554 22.244C229.099 22.5373 228.74 22.948 228.476 23.476C228.212 23.9893 228.08 24.5833 228.08 25.258ZM249.825 31H246.877V24.532C246.877 23.608 246.716 22.9333 246.393 22.508C246.071 22.0827 245.623 21.87 245.051 21.87C244.655 21.87 244.252 21.9727 243.841 22.178C243.445 22.3833 243.086 22.6693 242.763 23.036C242.441 23.388 242.206 23.7987 242.059 24.268V31H239.111V19.472H241.773V21.606C242.067 21.1073 242.441 20.6893 242.895 20.352C243.35 20 243.871 19.736 244.457 19.56C245.059 19.3693 245.689 19.274 246.349 19.274C247.068 19.274 247.655 19.406 248.109 19.67C248.579 19.9193 248.931 20.264 249.165 20.704C249.415 21.1293 249.583 21.6133 249.671 22.156C249.774 22.6987 249.825 23.2487 249.825 23.806V31Z" fill="black"/>
</svg>
