<svg width="358" height="85" viewBox="0 0 358 85" fill="none" xmlns="http://www.w3.org/2000/svg">
<g filter="url(#filter0_d_1323_79)">
<path d="M15 16H288C312.853 16 333 36.1472 333 61H60C35.1472 61 15 40.8528 15 16Z" fill="#EBECF0"/>
<path d="M76.1474 31.38H79.2274L84.9694 47H81.8454L80.3934 43.106H74.9374L73.5074 47H70.3834L76.1474 31.38ZM79.8434 40.972L77.6874 34.526L75.4434 40.972H79.8434ZM86.3102 30.94H89.2582V43.304C89.2582 43.832 89.3462 44.1913 89.5222 44.382C89.6982 44.558 89.9402 44.646 90.2482 44.646C90.4829 44.646 90.7249 44.6167 90.9742 44.558C91.2236 44.4993 91.4436 44.426 91.6342 44.338L92.0302 46.582C91.6342 46.7727 91.1722 46.9193 90.6442 47.022C90.1162 47.1247 89.6396 47.176 89.2142 47.176C88.2902 47.176 87.5716 46.934 87.0582 46.45C86.5596 45.9513 86.3102 45.2473 86.3102 44.338V30.94ZM93.2927 30.94H96.2407V43.304C96.2407 43.832 96.3287 44.1913 96.5047 44.382C96.6807 44.558 96.9227 44.646 97.2307 44.646C97.4653 44.646 97.7073 44.6167 97.9567 44.558C98.206 44.4993 98.426 44.426 98.6167 44.338L99.0127 46.582C98.6167 46.7727 98.1547 46.9193 97.6267 47.022C97.0987 47.1247 96.622 47.176 96.1967 47.176C95.2727 47.176 94.554 46.934 94.0407 46.45C93.542 45.9513 93.2927 45.2473 93.2927 44.338V30.94ZM100.297 47V35.472H103.245V47H100.297ZM100.297 33.866V30.94H103.245V33.866H100.297ZM105.113 43.59C105.113 42.842 105.318 42.1893 105.729 41.632C106.154 41.06 106.741 40.62 107.489 40.312C108.237 40.004 109.095 39.85 110.062 39.85C110.547 39.85 111.038 39.8867 111.537 39.96C112.035 40.0333 112.468 40.1507 112.835 40.312V39.696C112.835 38.9627 112.615 38.398 112.175 38.002C111.749 37.606 111.111 37.408 110.261 37.408C109.63 37.408 109.029 37.518 108.457 37.738C107.885 37.958 107.283 38.2807 106.653 38.706L105.707 36.77C106.469 36.2713 107.247 35.8973 108.039 35.648C108.845 35.3987 109.689 35.274 110.569 35.274C112.211 35.274 113.487 35.6847 114.397 36.506C115.321 37.3273 115.783 38.5007 115.783 40.026V43.7C115.783 44.008 115.834 44.228 115.937 44.36C116.054 44.492 116.237 44.5727 116.487 44.602V47C116.223 47.044 115.981 47.0807 115.761 47.11C115.555 47.1393 115.379 47.154 115.233 47.154C114.646 47.154 114.199 47.022 113.891 46.758C113.597 46.494 113.414 46.1713 113.341 45.79L113.275 45.196C112.776 45.8413 112.153 46.34 111.405 46.692C110.657 47.044 109.894 47.22 109.117 47.22C108.354 47.22 107.665 47.066 107.049 46.758C106.447 46.4353 105.971 46.0027 105.619 45.46C105.281 44.9027 105.113 44.2793 105.113 43.59ZM112.285 44.184C112.446 44.008 112.578 43.832 112.681 43.656C112.783 43.48 112.835 43.3187 112.835 43.172V42.006C112.483 41.8593 112.101 41.7493 111.691 41.676C111.28 41.588 110.891 41.544 110.525 41.544C109.762 41.544 109.131 41.7127 108.633 42.05C108.149 42.3727 107.907 42.8053 107.907 43.348C107.907 43.6413 107.987 43.92 108.149 44.184C108.31 44.448 108.545 44.6607 108.853 44.822C109.161 44.9833 109.527 45.064 109.953 45.064C110.393 45.064 110.825 44.9833 111.251 44.822C111.676 44.646 112.021 44.4333 112.285 44.184ZM129.251 47H126.303V40.532C126.303 39.608 126.142 38.9333 125.819 38.508C125.497 38.0827 125.049 37.87 124.477 37.87C124.081 37.87 123.678 37.9727 123.267 38.178C122.871 38.3833 122.512 38.6693 122.189 39.036C121.867 39.388 121.632 39.7987 121.485 40.268V47H118.537V35.472H121.199V37.606C121.493 37.1073 121.867 36.6893 122.321 36.352C122.776 36 123.297 35.736 123.883 35.56C124.485 35.3693 125.115 35.274 125.775 35.274C126.494 35.274 127.081 35.406 127.535 35.67C128.005 35.9193 128.357 36.264 128.591 36.704C128.841 37.1293 129.009 37.6133 129.097 38.156C129.2 38.6987 129.251 39.2487 129.251 39.806V47ZM137.183 47.22C136.244 47.22 135.401 47.066 134.653 46.758C133.905 46.4353 133.267 45.9953 132.739 45.438C132.211 44.866 131.8 44.2207 131.507 43.502C131.228 42.7833 131.089 42.028 131.089 41.236C131.089 40.1507 131.331 39.1607 131.815 38.266C132.313 37.3567 133.017 36.6307 133.927 36.088C134.836 35.5453 135.914 35.274 137.161 35.274C138.407 35.274 139.478 35.5453 140.373 36.088C141.267 36.6307 141.935 37.342 142.375 38.222L139.493 39.102C139.243 38.6767 138.913 38.354 138.503 38.134C138.092 37.8993 137.637 37.782 137.139 37.782C136.581 37.782 136.068 37.9287 135.599 38.222C135.144 38.5007 134.785 38.904 134.521 39.432C134.257 39.9453 134.125 40.5467 134.125 41.236C134.125 41.9107 134.257 42.512 134.521 43.04C134.799 43.5533 135.166 43.964 135.621 44.272C136.075 44.5653 136.581 44.712 137.139 44.712C137.491 44.712 137.821 44.6533 138.129 44.536C138.451 44.4187 138.737 44.2573 138.987 44.052C139.236 43.8467 139.419 43.612 139.537 43.348L142.419 44.228C142.155 44.8 141.766 45.3133 141.253 45.768C140.754 46.2227 140.16 46.582 139.471 46.846C138.796 47.0953 138.033 47.22 137.183 47.22ZM149.471 47.22C148.547 47.22 147.711 47.066 146.963 46.758C146.215 46.4353 145.577 46.0027 145.049 45.46C144.521 44.9027 144.111 44.272 143.817 43.568C143.539 42.8493 143.399 42.094 143.399 41.302C143.399 40.202 143.641 39.1973 144.125 38.288C144.624 37.3787 145.328 36.6527 146.237 36.11C147.161 35.5527 148.247 35.274 149.493 35.274C150.755 35.274 151.833 35.5527 152.727 36.11C153.622 36.6527 154.304 37.3787 154.773 38.288C155.257 39.1827 155.499 40.1507 155.499 41.192C155.499 41.368 155.492 41.5513 155.477 41.742C155.463 41.918 155.448 42.0647 155.433 42.182H146.523C146.582 42.7687 146.751 43.282 147.029 43.722C147.323 44.162 147.689 44.4993 148.129 44.734C148.584 44.954 149.068 45.064 149.581 45.064C150.168 45.064 150.718 44.9247 151.231 44.646C151.759 44.3527 152.119 43.9713 152.309 43.502L154.839 44.206C154.561 44.7927 154.157 45.3133 153.629 45.768C153.116 46.2227 152.507 46.582 151.803 46.846C151.099 47.0953 150.322 47.22 149.471 47.22ZM146.457 40.312H152.485C152.427 39.7253 152.258 39.2193 151.979 38.794C151.715 38.354 151.363 38.0167 150.923 37.782C150.483 37.5327 149.992 37.408 149.449 37.408C148.921 37.408 148.437 37.5327 147.997 37.782C147.572 38.0167 147.22 38.354 146.941 38.794C146.677 39.2193 146.516 39.7253 146.457 40.312ZM161.788 43.59C161.788 42.842 161.994 42.1893 162.404 41.632C162.83 41.06 163.416 40.62 164.164 40.312C164.912 40.004 165.77 39.85 166.738 39.85C167.222 39.85 167.714 39.8867 168.212 39.96C168.711 40.0333 169.144 40.1507 169.51 40.312V39.696C169.51 38.9627 169.29 38.398 168.85 38.002C168.425 37.606 167.787 37.408 166.936 37.408C166.306 37.408 165.704 37.518 165.132 37.738C164.56 37.958 163.959 38.2807 163.328 38.706L162.382 36.77C163.145 36.2713 163.922 35.8973 164.714 35.648C165.521 35.3987 166.364 35.274 167.244 35.274C168.887 35.274 170.163 35.6847 171.072 36.506C171.996 37.3273 172.458 38.5007 172.458 40.026V43.7C172.458 44.008 172.51 44.228 172.612 44.36C172.73 44.492 172.913 44.5727 173.162 44.602V47C172.898 47.044 172.656 47.0807 172.436 47.11C172.231 47.1393 172.055 47.154 171.908 47.154C171.322 47.154 170.874 47.022 170.566 46.758C170.273 46.494 170.09 46.1713 170.016 45.79L169.95 45.196C169.452 45.8413 168.828 46.34 168.08 46.692C167.332 47.044 166.57 47.22 165.792 47.22C165.03 47.22 164.34 47.066 163.724 46.758C163.123 46.4353 162.646 46.0027 162.294 45.46C161.957 44.9027 161.788 44.2793 161.788 43.59ZM168.96 44.184C169.122 44.008 169.254 43.832 169.356 43.656C169.459 43.48 169.51 43.3187 169.51 43.172V42.006C169.158 41.8593 168.777 41.7493 168.366 41.676C167.956 41.588 167.567 41.544 167.2 41.544C166.438 41.544 165.807 41.7127 165.308 42.05C164.824 42.3727 164.582 42.8053 164.582 43.348C164.582 43.6413 164.663 43.92 164.824 44.184C164.986 44.448 165.22 44.6607 165.528 44.822C165.836 44.9833 166.203 45.064 166.628 45.064C167.068 45.064 167.501 44.9833 167.926 44.822C168.352 44.646 168.696 44.4333 168.96 44.184ZM182.014 46.406C181.764 46.5087 181.464 46.626 181.112 46.758C180.76 46.89 180.378 46.9927 179.968 47.066C179.572 47.154 179.168 47.198 178.758 47.198C178.215 47.198 177.716 47.1027 177.262 46.912C176.807 46.7213 176.44 46.4207 176.162 46.01C175.898 45.5847 175.766 45.0347 175.766 44.36V37.738H174.248V35.472H175.766V31.732H178.714V35.472H181.134V37.738H178.714V43.37C178.728 43.766 178.838 44.052 179.044 44.228C179.249 44.404 179.506 44.492 179.814 44.492C180.122 44.492 180.422 44.4407 180.716 44.338C181.009 44.2353 181.244 44.1473 181.42 44.074L182.014 46.406ZM188.042 43.59C188.042 42.842 188.248 42.1893 188.658 41.632C189.084 41.06 189.67 40.62 190.418 40.312C191.166 40.004 192.024 39.85 192.992 39.85C193.476 39.85 193.968 39.8867 194.466 39.96C194.965 40.0333 195.398 40.1507 195.764 40.312V39.696C195.764 38.9627 195.544 38.398 195.104 38.002C194.679 37.606 194.041 37.408 193.19 37.408C192.56 37.408 191.958 37.518 191.386 37.738C190.814 37.958 190.213 38.2807 189.582 38.706L188.636 36.77C189.399 36.2713 190.176 35.8973 190.968 35.648C191.775 35.3987 192.618 35.274 193.498 35.274C195.141 35.274 196.417 35.6847 197.326 36.506C198.25 37.3273 198.712 38.5007 198.712 40.026V43.7C198.712 44.008 198.764 44.228 198.866 44.36C198.984 44.492 199.167 44.5727 199.416 44.602V47C199.152 47.044 198.91 47.0807 198.69 47.11C198.485 47.1393 198.309 47.154 198.162 47.154C197.576 47.154 197.128 47.022 196.82 46.758C196.527 46.494 196.344 46.1713 196.27 45.79L196.204 45.196C195.706 45.8413 195.082 46.34 194.334 46.692C193.586 47.044 192.824 47.22 192.046 47.22C191.284 47.22 190.594 47.066 189.978 46.758C189.377 46.4353 188.9 46.0027 188.548 45.46C188.211 44.9027 188.042 44.2793 188.042 43.59ZM195.214 44.184C195.376 44.008 195.508 43.832 195.61 43.656C195.713 43.48 195.764 43.3187 195.764 43.172V42.006C195.412 41.8593 195.031 41.7493 194.62 41.676C194.21 41.588 193.821 41.544 193.454 41.544C192.692 41.544 192.061 41.7127 191.562 42.05C191.078 42.3727 190.836 42.8053 190.836 43.348C190.836 43.6413 190.917 43.92 191.078 44.184C191.24 44.448 191.474 44.6607 191.782 44.822C192.09 44.9833 192.457 45.064 192.882 45.064C193.322 45.064 193.755 44.9833 194.18 44.822C194.606 44.646 194.95 44.4333 195.214 44.184ZM211.262 47.066C210.499 47.066 209.795 46.9193 209.15 46.626C208.519 46.318 207.969 45.8927 207.5 45.35C207.045 44.8073 206.693 44.184 206.444 43.48C206.195 42.776 206.07 42.028 206.07 41.236C206.07 40.4 206.202 39.6227 206.466 38.904C206.73 38.1853 207.097 37.5547 207.566 37.012C208.05 36.4547 208.615 36.0293 209.26 35.736C209.92 35.428 210.646 35.274 211.438 35.274C212.333 35.274 213.117 35.4793 213.792 35.89C214.467 36.286 215.024 36.8213 215.464 37.496V35.472H218.038V46.45C218.038 47.594 217.759 48.5693 217.202 49.376C216.659 50.1973 215.904 50.8207 214.936 51.246C213.968 51.686 212.868 51.906 211.636 51.906C210.389 51.906 209.333 51.6933 208.468 51.268C207.603 50.8573 206.862 50.2707 206.246 49.508L207.852 47.946C208.292 48.4887 208.842 48.914 209.502 49.222C210.177 49.53 210.888 49.684 211.636 49.684C212.267 49.684 212.839 49.5667 213.352 49.332C213.88 49.112 214.298 48.76 214.606 48.276C214.929 47.8067 215.09 47.198 215.09 46.45V44.998C214.709 45.658 214.166 46.1713 213.462 46.538C212.773 46.89 212.039 47.066 211.262 47.066ZM212.252 44.712C212.575 44.712 212.883 44.6607 213.176 44.558C213.469 44.4553 213.741 44.316 213.99 44.14C214.239 43.964 214.459 43.7587 214.65 43.524C214.841 43.2747 214.987 43.0253 215.09 42.776V40.026C214.914 39.5713 214.665 39.1753 214.342 38.838C214.034 38.5007 213.682 38.244 213.286 38.068C212.905 37.8773 212.501 37.782 212.076 37.782C211.621 37.782 211.211 37.8773 210.844 38.068C210.477 38.2587 210.162 38.53 209.898 38.882C209.634 39.2193 209.429 39.6007 209.282 40.026C209.15 40.4367 209.084 40.8693 209.084 41.324C209.084 41.7933 209.165 42.2333 209.326 42.644C209.487 43.0547 209.707 43.414 209.986 43.722C210.279 44.03 210.617 44.272 210.998 44.448C211.394 44.624 211.812 44.712 212.252 44.712ZM220.674 30.94H223.622V43.304C223.622 43.832 223.71 44.1913 223.886 44.382C224.062 44.558 224.304 44.646 224.612 44.646C224.846 44.646 225.088 44.6167 225.338 44.558C225.587 44.4993 225.807 44.426 225.998 44.338L226.394 46.582C225.998 46.7727 225.536 46.9193 225.008 47.022C224.48 47.1247 224.003 47.176 223.578 47.176C222.654 47.176 221.935 46.934 221.422 46.45C220.923 45.9513 220.674 45.2473 220.674 44.338V30.94ZM226.886 43.59C226.886 42.842 227.091 42.1893 227.502 41.632C227.927 41.06 228.514 40.62 229.262 40.312C230.01 40.004 230.868 39.85 231.836 39.85C232.32 39.85 232.811 39.8867 233.31 39.96C233.809 40.0333 234.241 40.1507 234.608 40.312V39.696C234.608 38.9627 234.388 38.398 233.948 38.002C233.523 37.606 232.885 37.408 232.034 37.408C231.403 37.408 230.802 37.518 230.23 37.738C229.658 37.958 229.057 38.2807 228.426 38.706L227.48 36.77C228.243 36.2713 229.02 35.8973 229.812 35.648C230.619 35.3987 231.462 35.274 232.342 35.274C233.985 35.274 235.261 35.6847 236.17 36.506C237.094 37.3273 237.556 38.5007 237.556 40.026V43.7C237.556 44.008 237.607 44.228 237.71 44.36C237.827 44.492 238.011 44.5727 238.26 44.602V47C237.996 47.044 237.754 47.0807 237.534 47.11C237.329 47.1393 237.153 47.154 237.006 47.154C236.419 47.154 235.972 47.022 235.664 46.758C235.371 46.494 235.187 46.1713 235.114 45.79L235.048 45.196C234.549 45.8413 233.926 46.34 233.178 46.692C232.43 47.044 231.667 47.22 230.89 47.22C230.127 47.22 229.438 47.066 228.822 46.758C228.221 46.4353 227.744 46.0027 227.392 45.46C227.055 44.9027 226.886 44.2793 226.886 43.59ZM234.058 44.184C234.219 44.008 234.351 43.832 234.454 43.656C234.557 43.48 234.608 43.3187 234.608 43.172V42.006C234.256 41.8593 233.875 41.7493 233.464 41.676C233.053 41.588 232.665 41.544 232.298 41.544C231.535 41.544 230.905 41.7127 230.406 42.05C229.922 42.3727 229.68 42.8053 229.68 43.348C229.68 43.6413 229.761 43.92 229.922 44.184C230.083 44.448 230.318 44.6607 230.626 44.822C230.934 44.9833 231.301 45.064 231.726 45.064C232.166 45.064 232.599 44.9833 233.024 44.822C233.449 44.646 233.794 44.4333 234.058 44.184ZM251.025 47H248.077V40.532C248.077 39.608 247.915 38.9333 247.593 38.508C247.27 38.0827 246.823 37.87 246.251 37.87C245.855 37.87 245.451 37.9727 245.041 38.178C244.645 38.3833 244.285 38.6693 243.963 39.036C243.64 39.388 243.405 39.7987 243.259 40.268V47H240.311V35.472H242.973V37.606C243.266 37.1073 243.64 36.6893 244.095 36.352C244.549 36 245.07 35.736 245.657 35.56C246.258 35.3693 246.889 35.274 247.549 35.274C248.267 35.274 248.854 35.406 249.309 35.67C249.778 35.9193 250.13 36.264 250.365 36.704C250.614 37.1293 250.783 37.6133 250.871 38.156C250.973 38.6987 251.025 39.2487 251.025 39.806V47ZM258.956 47.22C258.017 47.22 257.174 47.066 256.426 46.758C255.678 46.4353 255.04 45.9953 254.512 45.438C253.984 44.866 253.573 44.2207 253.28 43.502C253.001 42.7833 252.862 42.028 252.862 41.236C252.862 40.1507 253.104 39.1607 253.588 38.266C254.087 37.3567 254.791 36.6307 255.7 36.088C256.609 35.5453 257.687 35.274 258.934 35.274C260.181 35.274 261.251 35.5453 262.146 36.088C263.041 36.6307 263.708 37.342 264.148 38.222L261.266 39.102C261.017 38.6767 260.687 38.354 260.276 38.134C259.865 37.8993 259.411 37.782 258.912 37.782C258.355 37.782 257.841 37.9287 257.372 38.222C256.917 38.5007 256.558 38.904 256.294 39.432C256.03 39.9453 255.898 40.5467 255.898 41.236C255.898 41.9107 256.03 42.512 256.294 43.04C256.573 43.5533 256.939 43.964 257.394 44.272C257.849 44.5653 258.355 44.712 258.912 44.712C259.264 44.712 259.594 44.6533 259.902 44.536C260.225 44.4187 260.511 44.2573 260.76 44.052C261.009 43.8467 261.193 43.612 261.31 43.348L264.192 44.228C263.928 44.8 263.539 45.3133 263.026 45.768C262.527 46.2227 261.933 46.582 261.244 46.846C260.569 47.0953 259.807 47.22 258.956 47.22ZM271.245 47.22C270.321 47.22 269.485 47.066 268.737 46.758C267.989 46.4353 267.351 46.0027 266.823 45.46C266.295 44.9027 265.884 44.272 265.591 43.568C265.312 42.8493 265.173 42.094 265.173 41.302C265.173 40.202 265.415 39.1973 265.899 38.288C266.397 37.3787 267.101 36.6527 268.011 36.11C268.935 35.5527 270.02 35.274 271.267 35.274C272.528 35.274 273.606 35.5527 274.501 36.11C275.395 36.6527 276.077 37.3787 276.547 38.288C277.031 39.1827 277.273 40.1507 277.273 41.192C277.273 41.368 277.265 41.5513 277.251 41.742C277.236 41.918 277.221 42.0647 277.207 42.182H268.297C268.355 42.7687 268.524 43.282 268.803 43.722C269.096 44.162 269.463 44.4993 269.903 44.734C270.357 44.954 270.841 45.064 271.355 45.064C271.941 45.064 272.491 44.9247 273.005 44.646C273.533 44.3527 273.892 43.9713 274.083 43.502L276.613 44.206C276.334 44.7927 275.931 45.3133 275.403 45.768C274.889 46.2227 274.281 46.582 273.577 46.846C272.873 47.0953 272.095 47.22 271.245 47.22ZM268.231 40.312H274.259C274.2 39.7253 274.031 39.2193 273.753 38.794C273.489 38.354 273.137 38.0167 272.697 37.782C272.257 37.5327 271.765 37.408 271.223 37.408C270.695 37.408 270.211 37.5327 269.771 37.782C269.345 38.0167 268.993 38.354 268.715 38.794C268.451 39.2193 268.289 39.7253 268.231 40.312Z" fill="black"/>
</g>
<defs>
<filter id="filter0_d_1323_79" x="0" y="0" width="358" height="85" filterUnits="userSpaceOnUse" color-interpolation-filters="sRGB">
<feFlood flood-opacity="0" result="BackgroundImageFix"/>
<feColorMatrix in="SourceAlpha" type="matrix" values="0 0 0 0 0 0 0 0 0 0 0 0 0 0 0 0 0 0 127 0" result="hardAlpha"/>
<feOffset dx="5" dy="4"/>
<feGaussianBlur stdDeviation="10"/>
<feComposite in2="hardAlpha" operator="out"/>
<feColorMatrix type="matrix" values="0 0 0 0 0 0 0 0 0 0 0 0 0 0 0 0 0 0 0.25 0"/>
<feBlend mode="normal" in2="BackgroundImageFix" result="effect1_dropShadow_1323_79"/>
<feBlend mode="normal" in="SourceGraphic" in2="effect1_dropShadow_1323_79" result="shape"/>
</filter>
</defs>
</svg>
