<svg width="318" height="45" viewBox="0 0 318 45" fill="none" xmlns="http://www.w3.org/2000/svg">
<path d="M45 43.5C21.4777 43.5 2.31993 24.8298 1.5293 1.5L273 1.5C296.522 1.5 315.68 20.1702 316.471 43.5L45 43.5Z" fill="#FFD60A" stroke="#FFD60A" stroke-width="3"/>
<path d="M54.0337 15.38H57.1137L62.8557 31H59.7317L58.2797 27.106H52.8237L51.3937 31H48.2697L54.0337 15.38ZM57.7297 24.972L55.5737 18.526L53.3297 24.972H57.7297ZM64.1965 14.94H67.1445V27.304C67.1445 27.832 67.2325 28.1913 67.4085 28.382C67.5845 28.558 67.8265 28.646 68.1345 28.646C68.3692 28.646 68.6112 28.6167 68.8605 28.558C69.1099 28.4993 69.3299 28.426 69.5205 28.338L69.9165 30.582C69.5205 30.7727 69.0585 30.9193 68.5305 31.022C68.0025 31.1247 67.5259 31.176 67.1005 31.176C66.1765 31.176 65.4579 30.934 64.9445 30.45C64.4459 29.9513 64.1965 29.2473 64.1965 28.338V14.94ZM71.1789 14.94H74.1269V27.304C74.1269 27.832 74.2149 28.1913 74.3909 28.382C74.5669 28.558 74.8089 28.646 75.1169 28.646C75.3516 28.646 75.5936 28.6167 75.8429 28.558C76.0923 28.4993 76.3123 28.426 76.5029 28.338L76.8989 30.582C76.5029 30.7727 76.0409 30.9193 75.5129 31.022C74.9849 31.1247 74.5083 31.176 74.0829 31.176C73.1589 31.176 72.4403 30.934 71.9269 30.45C71.4283 29.9513 71.1789 29.2473 71.1789 28.338V14.94ZM78.1834 31V19.472H81.1314V31H78.1834ZM78.1834 17.866V14.94H81.1314V17.866H78.1834ZM82.9988 27.59C82.9988 26.842 83.2041 26.1893 83.6148 25.632C84.0401 25.06 84.6268 24.62 85.3748 24.312C86.1228 24.004 86.9808 23.85 87.9488 23.85C88.4328 23.85 88.9241 23.8867 89.4228 23.96C89.9215 24.0333 90.3541 24.1507 90.7208 24.312V23.696C90.7208 22.9627 90.5008 22.398 90.0608 22.002C89.6355 21.606 88.9975 21.408 88.1468 21.408C87.5161 21.408 86.9148 21.518 86.3428 21.738C85.7708 21.958 85.1695 22.2807 84.5388 22.706L83.5928 20.77C84.3555 20.2713 85.1328 19.8973 85.9248 19.648C86.7315 19.3987 87.5748 19.274 88.4548 19.274C90.0975 19.274 91.3735 19.6847 92.2828 20.506C93.2068 21.3273 93.6688 22.5007 93.6688 24.026V27.7C93.6688 28.008 93.7201 28.228 93.8228 28.36C93.9401 28.492 94.1235 28.5727 94.3728 28.602V31C94.1088 31.044 93.8668 31.0807 93.6468 31.11C93.4415 31.1393 93.2655 31.154 93.1188 31.154C92.5321 31.154 92.0848 31.022 91.7768 30.758C91.4835 30.494 91.3001 30.1713 91.2268 29.79L91.1608 29.196C90.6621 29.8413 90.0388 30.34 89.2908 30.692C88.5428 31.044 87.7801 31.22 87.0028 31.22C86.2401 31.22 85.5508 31.066 84.9348 30.758C84.3335 30.4353 83.8568 30.0027 83.5048 29.46C83.1675 28.9027 82.9988 28.2793 82.9988 27.59ZM90.1708 28.184C90.3321 28.008 90.4641 27.832 90.5668 27.656C90.6695 27.48 90.7208 27.3187 90.7208 27.172V26.006C90.3688 25.8593 89.9875 25.7493 89.5768 25.676C89.1661 25.588 88.7775 25.544 88.4108 25.544C87.6481 25.544 87.0175 25.7127 86.5188 26.05C86.0348 26.3727 85.7928 26.8053 85.7928 27.348C85.7928 27.6413 85.8735 27.92 86.0348 28.184C86.1961 28.448 86.4308 28.6607 86.7388 28.822C87.0468 28.9833 87.4135 29.064 87.8388 29.064C88.2788 29.064 88.7115 28.9833 89.1368 28.822C89.5621 28.646 89.9068 28.4333 90.1708 28.184ZM107.138 31H104.19V24.532C104.19 23.608 104.028 22.9333 103.706 22.508C103.383 22.0827 102.936 21.87 102.364 21.87C101.968 21.87 101.564 21.9727 101.154 22.178C100.758 22.3833 100.398 22.6693 100.076 23.036C99.7529 23.388 99.5183 23.7987 99.3716 24.268V31H96.4236V19.472H99.0856V21.606C99.3789 21.1073 99.7529 20.6893 100.208 20.352C100.662 20 101.183 19.736 101.77 19.56C102.371 19.3693 103.002 19.274 103.662 19.274C104.38 19.274 104.967 19.406 105.422 19.67C105.891 19.9193 106.243 20.264 106.478 20.704C106.727 21.1293 106.896 21.6133 106.984 22.156C107.086 22.6987 107.138 23.2487 107.138 23.806V31ZM115.069 31.22C114.13 31.22 113.287 31.066 112.539 30.758C111.791 30.4353 111.153 29.9953 110.625 29.438C110.097 28.866 109.686 28.2207 109.393 27.502C109.114 26.7833 108.975 26.028 108.975 25.236C108.975 24.1507 109.217 23.1607 109.701 22.266C110.2 21.3567 110.904 20.6307 111.813 20.088C112.722 19.5453 113.8 19.274 115.047 19.274C116.294 19.274 117.364 19.5453 118.259 20.088C119.154 20.6307 119.821 21.342 120.261 22.222L117.379 23.102C117.13 22.6767 116.8 22.354 116.389 22.134C115.978 21.8993 115.524 21.782 115.025 21.782C114.468 21.782 113.954 21.9287 113.485 22.222C113.03 22.5007 112.671 22.904 112.407 23.432C112.143 23.9453 112.011 24.5467 112.011 25.236C112.011 25.9107 112.143 26.512 112.407 27.04C112.686 27.5533 113.052 27.964 113.507 28.272C113.962 28.5653 114.468 28.712 115.025 28.712C115.377 28.712 115.707 28.6533 116.015 28.536C116.338 28.4187 116.624 28.2573 116.873 28.052C117.122 27.8467 117.306 27.612 117.423 27.348L120.305 28.228C120.041 28.8 119.652 29.3133 119.139 29.768C118.64 30.2227 118.046 30.582 117.357 30.846C116.682 31.0953 115.92 31.22 115.069 31.22ZM127.357 31.22C126.433 31.22 125.597 31.066 124.849 30.758C124.101 30.4353 123.463 30.0027 122.935 29.46C122.407 28.9027 121.997 28.272 121.703 27.568C121.425 26.8493 121.285 26.094 121.285 25.302C121.285 24.202 121.527 23.1973 122.011 22.288C122.51 21.3787 123.214 20.6527 124.123 20.11C125.047 19.5527 126.133 19.274 127.379 19.274C128.641 19.274 129.719 19.5527 130.613 20.11C131.508 20.6527 132.19 21.3787 132.659 22.288C133.143 23.1827 133.385 24.1507 133.385 25.192C133.385 25.368 133.378 25.5513 133.363 25.742C133.349 25.918 133.334 26.0647 133.319 26.182H124.409C124.468 26.7687 124.637 27.282 124.915 27.722C125.209 28.162 125.575 28.4993 126.015 28.734C126.47 28.954 126.954 29.064 127.467 29.064C128.054 29.064 128.604 28.9247 129.117 28.646C129.645 28.3527 130.005 27.9713 130.195 27.502L132.725 28.206C132.447 28.7927 132.043 29.3133 131.515 29.768C131.002 30.2227 130.393 30.582 129.689 30.846C128.985 31.0953 128.208 31.22 127.357 31.22ZM124.343 24.312H130.371C130.313 23.7253 130.144 23.2193 129.865 22.794C129.601 22.354 129.249 22.0167 128.809 21.782C128.369 21.5327 127.878 21.408 127.335 21.408C126.807 21.408 126.323 21.5327 125.883 21.782C125.458 22.0167 125.106 22.354 124.827 22.794C124.563 23.2193 124.402 23.7253 124.343 24.312ZM145.791 31.22C144.852 31.22 144.009 31.066 143.261 30.758C142.513 30.4353 141.875 29.9953 141.347 29.438C140.833 28.8807 140.437 28.2427 140.159 27.524C139.88 26.8053 139.741 26.05 139.741 25.258C139.741 24.4513 139.88 23.6887 140.159 22.97C140.437 22.2513 140.833 21.6133 141.347 21.056C141.875 20.4987 142.513 20.066 143.261 19.758C144.009 19.4353 144.852 19.274 145.791 19.274C146.729 19.274 147.565 19.4353 148.299 19.758C149.047 20.066 149.685 20.4987 150.213 21.056C150.741 21.6133 151.137 22.2513 151.401 22.97C151.679 23.6887 151.819 24.4513 151.819 25.258C151.819 26.05 151.679 26.8053 151.401 27.524C151.137 28.2427 150.741 28.8807 150.213 29.438C149.699 29.9953 149.069 30.4353 148.321 30.758C147.573 31.066 146.729 31.22 145.791 31.22ZM142.777 25.258C142.777 25.9327 142.909 26.534 143.173 27.062C143.437 27.5753 143.796 27.9787 144.251 28.272C144.705 28.5653 145.219 28.712 145.791 28.712C146.348 28.712 146.854 28.5653 147.309 28.272C147.763 27.964 148.123 27.5533 148.387 27.04C148.665 26.512 148.805 25.9107 148.805 25.236C148.805 24.576 148.665 23.982 148.387 23.454C148.123 22.926 147.763 22.5153 147.309 22.222C146.854 21.9287 146.348 21.782 145.791 21.782C145.219 21.782 144.705 21.936 144.251 22.244C143.796 22.5373 143.437 22.948 143.173 23.476C142.909 23.9893 142.777 24.5833 142.777 25.258ZM160.672 22.024C159.778 22.024 158.978 22.2 158.274 22.552C157.57 22.8893 157.064 23.3807 156.756 24.026V31H153.808V19.472H156.514V21.936C156.925 21.144 157.446 20.5207 158.076 20.066C158.707 19.6113 159.374 19.362 160.078 19.318C160.24 19.318 160.364 19.318 160.452 19.318C160.54 19.318 160.614 19.3253 160.672 19.34V22.024ZM166.719 31.066C165.956 31.066 165.252 30.9193 164.607 30.626C163.976 30.318 163.426 29.8927 162.957 29.35C162.502 28.8073 162.15 28.184 161.901 27.48C161.651 26.776 161.527 26.028 161.527 25.236C161.527 24.4 161.659 23.6227 161.923 22.904C162.187 22.1853 162.553 21.5547 163.023 21.012C163.507 20.4547 164.071 20.0293 164.717 19.736C165.377 19.428 166.103 19.274 166.895 19.274C167.789 19.274 168.574 19.4793 169.249 19.89C169.923 20.286 170.481 20.8213 170.921 21.496V19.472H173.495V30.45C173.495 31.594 173.216 32.5693 172.659 33.376C172.116 34.1973 171.361 34.8207 170.393 35.246C169.425 35.686 168.325 35.906 167.093 35.906C165.846 35.906 164.79 35.6933 163.925 35.268C163.059 34.8573 162.319 34.2707 161.703 33.508L163.309 31.946C163.749 32.4887 164.299 32.914 164.959 33.222C165.633 33.53 166.345 33.684 167.093 33.684C167.723 33.684 168.295 33.5667 168.809 33.332C169.337 33.112 169.755 32.76 170.063 32.276C170.385 31.8067 170.547 31.198 170.547 30.45V28.998C170.165 29.658 169.623 30.1713 168.919 30.538C168.229 30.89 167.496 31.066 166.719 31.066ZM167.709 28.712C168.031 28.712 168.339 28.6607 168.633 28.558C168.926 28.4553 169.197 28.316 169.447 28.14C169.696 27.964 169.916 27.7587 170.107 27.524C170.297 27.2747 170.444 27.0253 170.547 26.776V24.026C170.371 23.5713 170.121 23.1753 169.799 22.838C169.491 22.5007 169.139 22.244 168.743 22.068C168.361 21.8773 167.958 21.782 167.533 21.782C167.078 21.782 166.667 21.8773 166.301 22.068C165.934 22.2587 165.619 22.53 165.355 22.882C165.091 23.2193 164.885 23.6007 164.739 24.026C164.607 24.4367 164.541 24.8693 164.541 25.324C164.541 25.7933 164.621 26.2333 164.783 26.644C164.944 27.0547 165.164 27.414 165.443 27.722C165.736 28.03 166.073 28.272 166.455 28.448C166.851 28.624 167.269 28.712 167.709 28.712ZM175.36 27.59C175.36 26.842 175.565 26.1893 175.976 25.632C176.401 25.06 176.988 24.62 177.736 24.312C178.484 24.004 179.342 23.85 180.31 23.85C180.794 23.85 181.285 23.8867 181.784 23.96C182.283 24.0333 182.715 24.1507 183.082 24.312V23.696C183.082 22.9627 182.862 22.398 182.422 22.002C181.997 21.606 181.359 21.408 180.508 21.408C179.877 21.408 179.276 21.518 178.704 21.738C178.132 21.958 177.531 22.2807 176.9 22.706L175.954 20.77C176.717 20.2713 177.494 19.8973 178.286 19.648C179.093 19.3987 179.936 19.274 180.816 19.274C182.459 19.274 183.735 19.6847 184.644 20.506C185.568 21.3273 186.03 22.5007 186.03 24.026V27.7C186.03 28.008 186.081 28.228 186.184 28.36C186.301 28.492 186.485 28.5727 186.734 28.602V31C186.47 31.044 186.228 31.0807 186.008 31.11C185.803 31.1393 185.627 31.154 185.48 31.154C184.893 31.154 184.446 31.022 184.138 30.758C183.845 30.494 183.661 30.1713 183.588 29.79L183.522 29.196C183.023 29.8413 182.4 30.34 181.652 30.692C180.904 31.044 180.141 31.22 179.364 31.22C178.601 31.22 177.912 31.066 177.296 30.758C176.695 30.4353 176.218 30.0027 175.866 29.46C175.529 28.9027 175.36 28.2793 175.36 27.59ZM182.532 28.184C182.693 28.008 182.825 27.832 182.928 27.656C183.031 27.48 183.082 27.3187 183.082 27.172V26.006C182.73 25.8593 182.349 25.7493 181.938 25.676C181.527 25.588 181.139 25.544 180.772 25.544C180.009 25.544 179.379 25.7127 178.88 26.05C178.396 26.3727 178.154 26.8053 178.154 27.348C178.154 27.6413 178.235 27.92 178.396 28.184C178.557 28.448 178.792 28.6607 179.1 28.822C179.408 28.9833 179.775 29.064 180.2 29.064C180.64 29.064 181.073 28.9833 181.498 28.822C181.923 28.646 182.268 28.4333 182.532 28.184ZM199.499 31H196.551V24.532C196.551 23.608 196.39 22.9333 196.067 22.508C195.744 22.0827 195.297 21.87 194.725 21.87C194.329 21.87 193.926 21.9727 193.515 22.178C193.119 22.3833 192.76 22.6693 192.437 23.036C192.114 23.388 191.88 23.7987 191.733 24.268V31H188.785V19.472H191.447V21.606C191.74 21.1073 192.114 20.6893 192.569 20.352C193.024 20 193.544 19.736 194.131 19.56C194.732 19.3693 195.363 19.274 196.023 19.274C196.742 19.274 197.328 19.406 197.783 19.67C198.252 19.9193 198.604 20.264 198.839 20.704C199.088 21.1293 199.257 21.6133 199.345 22.156C199.448 22.6987 199.499 23.2487 199.499 23.806V31ZM202.062 31V19.472H205.01V31H202.062ZM202.062 17.866V14.94H205.01V17.866H202.062ZM206.9 29.196L213.258 21.54H207.164V19.472H216.426V21.276L210.112 28.932H216.536V31H206.9V29.196ZM217.727 27.59C217.727 26.842 217.933 26.1893 218.343 25.632C218.769 25.06 219.355 24.62 220.103 24.312C220.851 24.004 221.709 23.85 222.677 23.85C223.161 23.85 223.653 23.8867 224.151 23.96C224.65 24.0333 225.083 24.1507 225.449 24.312V23.696C225.449 22.9627 225.229 22.398 224.789 22.002C224.364 21.606 223.726 21.408 222.875 21.408C222.245 21.408 221.643 21.518 221.071 21.738C220.499 21.958 219.898 22.2807 219.267 22.706L218.321 20.77C219.084 20.2713 219.861 19.8973 220.653 19.648C221.46 19.3987 222.303 19.274 223.183 19.274C224.826 19.274 226.102 19.6847 227.011 20.506C227.935 21.3273 228.397 22.5007 228.397 24.026V27.7C228.397 28.008 228.449 28.228 228.551 28.36C228.669 28.492 228.852 28.5727 229.101 28.602V31C228.837 31.044 228.595 31.0807 228.375 31.11C228.17 31.1393 227.994 31.154 227.847 31.154C227.261 31.154 226.813 31.022 226.505 30.758C226.212 30.494 226.029 30.1713 225.955 29.79L225.889 29.196C225.391 29.8413 224.767 30.34 224.019 30.692C223.271 31.044 222.509 31.22 221.731 31.22C220.969 31.22 220.279 31.066 219.663 30.758C219.062 30.4353 218.585 30.0027 218.233 29.46C217.896 28.9027 217.727 28.2793 217.727 27.59ZM224.899 28.184C225.061 28.008 225.193 27.832 225.295 27.656C225.398 27.48 225.449 27.3187 225.449 27.172V26.006C225.097 25.8593 224.716 25.7493 224.305 25.676C223.895 25.588 223.506 25.544 223.139 25.544C222.377 25.544 221.746 25.7127 221.247 26.05C220.763 26.3727 220.521 26.8053 220.521 27.348C220.521 27.6413 220.602 27.92 220.763 28.184C220.925 28.448 221.159 28.6607 221.467 28.822C221.775 28.9833 222.142 29.064 222.567 29.064C223.007 29.064 223.44 28.9833 223.865 28.822C224.291 28.646 224.635 28.4333 224.899 28.184ZM237.953 30.406C237.703 30.5087 237.403 30.626 237.051 30.758C236.699 30.89 236.317 30.9927 235.907 31.066C235.511 31.154 235.107 31.198 234.697 31.198C234.154 31.198 233.655 31.1027 233.201 30.912C232.746 30.7213 232.379 30.4207 232.101 30.01C231.837 29.5847 231.705 29.0347 231.705 28.36V21.738H230.187V19.472H231.705V15.732H234.653V19.472H237.073V21.738H234.653V27.37C234.667 27.766 234.777 28.052 234.983 28.228C235.188 28.404 235.445 28.492 235.753 28.492C236.061 28.492 236.361 28.4407 236.655 28.338C236.948 28.2353 237.183 28.1473 237.359 28.074L237.953 30.406ZM239.488 31V19.472H242.436V31H239.488ZM239.488 17.866V14.94H242.436V17.866H239.488ZM250.419 31.22C249.481 31.22 248.637 31.066 247.889 30.758C247.141 30.4353 246.503 29.9953 245.975 29.438C245.462 28.8807 245.066 28.2427 244.787 27.524C244.509 26.8053 244.369 26.05 244.369 25.258C244.369 24.4513 244.509 23.6887 244.787 22.97C245.066 22.2513 245.462 21.6133 245.975 21.056C246.503 20.4987 247.141 20.066 247.889 19.758C248.637 19.4353 249.481 19.274 250.419 19.274C251.358 19.274 252.194 19.4353 252.927 19.758C253.675 20.066 254.313 20.4987 254.841 21.056C255.369 21.6133 255.765 22.2513 256.029 22.97C256.308 23.6887 256.447 24.4513 256.447 25.258C256.447 26.05 256.308 26.8053 256.029 27.524C255.765 28.2427 255.369 28.8807 254.841 29.438C254.328 29.9953 253.697 30.4353 252.949 30.758C252.201 31.066 251.358 31.22 250.419 31.22ZM247.405 25.258C247.405 25.9327 247.537 26.534 247.801 27.062C248.065 27.5753 248.425 27.9787 248.879 28.272C249.334 28.5653 249.847 28.712 250.419 28.712C250.977 28.712 251.483 28.5653 251.937 28.272C252.392 27.964 252.751 27.5533 253.015 27.04C253.294 26.512 253.433 25.9107 253.433 25.236C253.433 24.576 253.294 23.982 253.015 23.454C252.751 22.926 252.392 22.5153 251.937 22.222C251.483 21.9287 250.977 21.782 250.419 21.782C249.847 21.782 249.334 21.936 248.879 22.244C248.425 22.5373 248.065 22.948 247.801 23.476C247.537 23.9893 247.405 24.5833 247.405 25.258ZM269.151 31H266.203V24.532C266.203 23.608 266.042 22.9333 265.719 22.508C265.397 22.0827 264.949 21.87 264.377 21.87C263.981 21.87 263.578 21.9727 263.167 22.178C262.771 22.3833 262.412 22.6693 262.089 23.036C261.767 23.388 261.532 23.7987 261.385 24.268V31H258.437V19.472H261.099V21.606C261.393 21.1073 261.767 20.6893 262.221 20.352C262.676 20 263.197 19.736 263.783 19.56C264.385 19.3693 265.015 19.274 265.675 19.274C266.394 19.274 266.981 19.406 267.435 19.67C267.905 19.9193 268.257 20.264 268.491 20.704C268.741 21.1293 268.909 21.6133 268.997 22.156C269.1 22.6987 269.151 23.2487 269.151 23.806V31Z" fill="black"/>
</svg>
