<svg width="1440" height="316" viewBox="0 0 1440 316" fill="none" xmlns="http://www.w3.org/2000/svg">
<rect width="1440" height="300" transform="translate(0 16)" fill="#FFD60A"/>
<path d="M416.609 127.95H424.309L438.664 167H430.854L427.224 157.265H413.584L410.009 167H402.199L416.609 127.95ZM425.849 151.93L420.459 135.815L414.849 151.93H425.849ZM454.793 167.55C452.446 167.55 450.338 167.165 448.468 166.395C446.598 165.588 445.003 164.488 443.683 163.095C442.363 161.665 441.336 160.052 440.603 158.255C439.906 156.458 439.558 154.57 439.558 152.59C439.558 149.877 440.163 147.402 441.373 145.165C442.619 142.892 444.379 141.077 446.653 139.72C448.926 138.363 451.621 137.685 454.738 137.685C457.854 137.685 460.531 138.363 462.768 139.72C465.004 141.077 466.673 142.855 467.773 145.055L460.568 147.255C459.944 146.192 459.119 145.385 458.093 144.835C457.066 144.248 455.929 143.955 454.683 143.955C453.289 143.955 452.006 144.322 450.833 145.055C449.696 145.752 448.798 146.76 448.138 148.08C447.478 149.363 447.148 150.867 447.148 152.59C447.148 154.277 447.478 155.78 448.138 157.1C448.834 158.383 449.751 159.41 450.888 160.18C452.024 160.913 453.289 161.28 454.683 161.28C455.563 161.28 456.388 161.133 457.158 160.84C457.964 160.547 458.679 160.143 459.303 159.63C459.926 159.117 460.384 158.53 460.678 157.87L467.883 160.07C467.223 161.5 466.251 162.783 464.968 163.92C463.721 165.057 462.236 165.955 460.513 166.615C458.826 167.238 456.919 167.55 454.793 167.55ZM485.569 167.55C483.222 167.55 481.114 167.165 479.244 166.395C477.374 165.588 475.779 164.488 474.459 163.095C473.139 161.665 472.112 160.052 471.379 158.255C470.682 156.458 470.334 154.57 470.334 152.59C470.334 149.877 470.939 147.402 472.149 145.165C473.396 142.892 475.156 141.077 477.429 139.72C479.702 138.363 482.397 137.685 485.514 137.685C488.631 137.685 491.307 138.363 493.544 139.72C495.781 141.077 497.449 142.855 498.549 145.055L491.344 147.255C490.721 146.192 489.896 145.385 488.869 144.835C487.842 144.248 486.706 143.955 485.459 143.955C484.066 143.955 482.782 144.322 481.609 145.055C480.472 145.752 479.574 146.76 478.914 148.08C478.254 149.363 477.924 150.867 477.924 152.59C477.924 154.277 478.254 155.78 478.914 157.1C479.611 158.383 480.527 159.41 481.664 160.18C482.801 160.913 484.066 161.28 485.459 161.28C486.339 161.28 487.164 161.133 487.934 160.84C488.741 160.547 489.456 160.143 490.079 159.63C490.702 159.117 491.161 158.53 491.454 157.87L498.659 160.07C497.999 161.5 497.027 162.783 495.744 163.92C494.497 165.057 493.012 165.955 491.289 166.615C489.602 167.238 487.696 167.55 485.569 167.55ZM516.29 167.55C513.98 167.55 511.89 167.165 510.02 166.395C508.15 165.588 506.555 164.507 505.235 163.15C503.915 161.757 502.889 160.18 502.155 158.42C501.459 156.623 501.11 154.735 501.11 152.755C501.11 150.005 501.715 147.493 502.925 145.22C504.172 142.947 505.932 141.132 508.205 139.775C510.515 138.382 513.229 137.685 516.345 137.685C519.499 137.685 522.194 138.382 524.43 139.775C526.667 141.132 528.372 142.947 529.545 145.22C530.755 147.457 531.36 149.877 531.36 152.48C531.36 152.92 531.342 153.378 531.305 153.855C531.269 154.295 531.232 154.662 531.195 154.955H508.92C509.067 156.422 509.489 157.705 510.185 158.805C510.919 159.905 511.835 160.748 512.935 161.335C514.072 161.885 515.282 162.16 516.565 162.16C518.032 162.16 519.407 161.812 520.69 161.115C522.01 160.382 522.909 159.428 523.385 158.255L529.71 160.015C529.014 161.482 528.005 162.783 526.685 163.92C525.402 165.057 523.88 165.955 522.12 166.615C520.36 167.238 518.417 167.55 516.29 167.55ZM508.755 150.28H523.825C523.679 148.813 523.257 147.548 522.56 146.485C521.9 145.385 521.02 144.542 519.92 143.955C518.82 143.332 517.592 143.02 516.235 143.02C514.915 143.02 513.705 143.332 512.605 143.955C511.542 144.542 510.662 145.385 509.965 146.485C509.305 147.548 508.902 148.813 508.755 150.28ZM535.795 126.85H543.165V157.76C543.165 159.08 543.385 159.978 543.825 160.455C544.265 160.895 544.87 161.115 545.64 161.115C546.227 161.115 546.832 161.042 547.455 160.895C548.078 160.748 548.628 160.565 549.105 160.345L550.095 165.955C549.105 166.432 547.95 166.798 546.63 167.055C545.31 167.312 544.118 167.44 543.055 167.44C540.745 167.44 538.948 166.835 537.665 165.625C536.418 164.378 535.795 162.618 535.795 160.345V126.85ZM566.671 167.55C564.361 167.55 562.271 167.165 560.401 166.395C558.531 165.588 556.936 164.507 555.616 163.15C554.296 161.757 553.27 160.18 552.536 158.42C551.84 156.623 551.491 154.735 551.491 152.755C551.491 150.005 552.096 147.493 553.306 145.22C554.553 142.947 556.313 141.132 558.586 139.775C560.896 138.382 563.61 137.685 566.726 137.685C569.88 137.685 572.575 138.382 574.811 139.775C577.048 141.132 578.753 142.947 579.926 145.22C581.136 147.457 581.741 149.877 581.741 152.48C581.741 152.92 581.723 153.378 581.686 153.855C581.65 154.295 581.613 154.662 581.576 154.955H559.301C559.448 156.422 559.87 157.705 560.566 158.805C561.3 159.905 562.216 160.748 563.316 161.335C564.453 161.885 565.663 162.16 566.946 162.16C568.413 162.16 569.788 161.812 571.071 161.115C572.391 160.382 573.29 159.428 573.766 158.255L580.091 160.015C579.395 161.482 578.386 162.783 577.066 163.92C575.783 165.057 574.261 165.955 572.501 166.615C570.741 167.238 568.798 167.55 566.671 167.55ZM559.136 150.28H574.206C574.06 148.813 573.638 147.548 572.941 146.485C572.281 145.385 571.401 144.542 570.301 143.955C569.201 143.332 567.973 143.02 566.616 143.02C565.296 143.02 564.086 143.332 562.986 143.955C561.923 144.542 561.043 145.385 560.346 146.485C559.686 147.548 559.283 148.813 559.136 150.28ZM603.391 144.56C601.154 144.56 599.156 145 597.396 145.88C595.636 146.723 594.371 147.952 593.601 149.565V167H586.231V138.18H592.996V144.34C594.023 142.36 595.324 140.802 596.901 139.665C598.478 138.528 600.146 137.905 601.906 137.795C602.309 137.795 602.621 137.795 602.841 137.795C603.061 137.795 603.244 137.813 603.391 137.85V144.56ZM605.359 158.475C605.359 156.605 605.873 154.973 606.899 153.58C607.963 152.15 609.429 151.05 611.299 150.28C613.169 149.51 615.314 149.125 617.734 149.125C618.944 149.125 620.173 149.217 621.419 149.4C622.666 149.583 623.748 149.877 624.664 150.28V148.74C624.664 146.907 624.114 145.495 623.014 144.505C621.951 143.515 620.356 143.02 618.229 143.02C616.653 143.02 615.149 143.295 613.719 143.845C612.289 144.395 610.786 145.202 609.209 146.265L606.844 141.425C608.751 140.178 610.694 139.243 612.674 138.62C614.691 137.997 616.799 137.685 618.999 137.685C623.106 137.685 626.296 138.712 628.569 140.765C630.879 142.818 632.034 145.752 632.034 149.565V158.75C632.034 159.52 632.163 160.07 632.419 160.4C632.713 160.73 633.171 160.932 633.794 161.005V167C633.134 167.11 632.529 167.202 631.979 167.275C631.466 167.348 631.026 167.385 630.659 167.385C629.193 167.385 628.074 167.055 627.304 166.395C626.571 165.735 626.113 164.928 625.929 163.975L625.764 162.49C624.518 164.103 622.959 165.35 621.089 166.23C619.219 167.11 617.313 167.55 615.369 167.55C613.463 167.55 611.739 167.165 610.199 166.395C608.696 165.588 607.504 164.507 606.624 163.15C605.781 161.757 605.359 160.198 605.359 158.475ZM623.289 159.96C623.693 159.52 624.023 159.08 624.279 158.64C624.536 158.2 624.664 157.797 624.664 157.43V154.515C623.784 154.148 622.831 153.873 621.804 153.69C620.778 153.47 619.806 153.36 618.889 153.36C616.983 153.36 615.406 153.782 614.159 154.625C612.949 155.432 612.344 156.513 612.344 157.87C612.344 158.603 612.546 159.3 612.949 159.96C613.353 160.62 613.939 161.152 614.709 161.555C615.479 161.958 616.396 162.16 617.459 162.16C618.559 162.16 619.641 161.958 620.704 161.555C621.768 161.115 622.629 160.583 623.289 159.96ZM655.923 165.515C655.3 165.772 654.548 166.065 653.668 166.395C652.788 166.725 651.835 166.982 650.808 167.165C649.818 167.385 648.81 167.495 647.783 167.495C646.426 167.495 645.18 167.257 644.043 166.78C642.906 166.303 641.99 165.552 641.293 164.525C640.633 163.462 640.303 162.087 640.303 160.4V143.845H636.508V138.18H640.303V128.83H647.673V138.18H653.723V143.845H647.673V157.925C647.71 158.915 647.985 159.63 648.498 160.07C649.011 160.51 649.653 160.73 650.423 160.73C651.193 160.73 651.945 160.602 652.678 160.345C653.411 160.088 653.998 159.868 654.438 159.685L655.923 165.515ZM659.761 167V138.18H667.131V167H659.761ZM659.761 134.165V126.85H667.131V134.165H659.761ZM687.09 167.55C684.743 167.55 682.635 167.165 680.765 166.395C678.895 165.588 677.3 164.488 675.98 163.095C674.696 161.702 673.706 160.107 673.01 158.31C672.313 156.513 671.965 154.625 671.965 152.645C671.965 150.628 672.313 148.722 673.01 146.925C673.706 145.128 674.696 143.533 675.98 142.14C677.3 140.747 678.895 139.665 680.765 138.895C682.635 138.088 684.743 137.685 687.09 137.685C689.436 137.685 691.526 138.088 693.36 138.895C695.23 139.665 696.825 140.747 698.145 142.14C699.465 143.533 700.455 145.128 701.115 146.925C701.811 148.722 702.16 150.628 702.16 152.645C702.16 154.625 701.811 156.513 701.115 158.31C700.455 160.107 699.465 161.702 698.145 163.095C696.861 164.488 695.285 165.588 693.415 166.395C691.545 167.165 689.436 167.55 687.09 167.55ZM679.555 152.645C679.555 154.332 679.885 155.835 680.545 157.155C681.205 158.438 682.103 159.447 683.24 160.18C684.376 160.913 685.66 161.28 687.09 161.28C688.483 161.28 689.748 160.913 690.885 160.18C692.021 159.41 692.92 158.383 693.58 157.1C694.276 155.78 694.625 154.277 694.625 152.59C694.625 150.94 694.276 149.455 693.58 148.135C692.92 146.815 692.021 145.788 690.885 145.055C689.748 144.322 688.483 143.955 687.09 143.955C685.66 143.955 684.376 144.34 683.24 145.11C682.103 145.843 681.205 146.87 680.545 148.19C679.885 149.473 679.555 150.958 679.555 152.645ZM733.919 167H726.549V150.83C726.549 148.52 726.146 146.833 725.339 145.77C724.533 144.707 723.414 144.175 721.984 144.175C720.994 144.175 719.986 144.432 718.959 144.945C717.969 145.458 717.071 146.173 716.264 147.09C715.458 147.97 714.871 148.997 714.504 150.17V167H707.134V138.18H713.789V143.515C714.523 142.268 715.458 141.223 716.594 140.38C717.731 139.5 719.033 138.84 720.499 138.4C722.003 137.923 723.579 137.685 725.229 137.685C727.026 137.685 728.493 138.015 729.629 138.675C730.803 139.298 731.683 140.16 732.269 141.26C732.893 142.323 733.314 143.533 733.534 144.89C733.791 146.247 733.919 147.622 733.919 149.015V167ZM751.561 158.475C751.561 156.605 752.074 154.973 753.101 153.58C754.164 152.15 755.631 151.05 757.501 150.28C759.371 149.51 761.516 149.125 763.936 149.125C765.146 149.125 766.374 149.217 767.621 149.4C768.867 149.583 769.949 149.877 770.866 150.28V148.74C770.866 146.907 770.316 145.495 769.216 144.505C768.152 143.515 766.557 143.02 764.431 143.02C762.854 143.02 761.351 143.295 759.921 143.845C758.491 144.395 756.987 145.202 755.411 146.265L753.046 141.425C754.952 140.178 756.896 139.243 758.876 138.62C760.892 137.997 763.001 137.685 765.201 137.685C769.307 137.685 772.497 138.712 774.771 140.765C777.081 142.818 778.236 145.752 778.236 149.565V158.75C778.236 159.52 778.364 160.07 778.621 160.4C778.914 160.73 779.372 160.932 779.996 161.005V167C779.336 167.11 778.731 167.202 778.181 167.275C777.667 167.348 777.227 167.385 776.861 167.385C775.394 167.385 774.276 167.055 773.506 166.395C772.772 165.735 772.314 164.928 772.131 163.975L771.966 162.49C770.719 164.103 769.161 165.35 767.291 166.23C765.421 167.11 763.514 167.55 761.571 167.55C759.664 167.55 757.941 167.165 756.401 166.395C754.897 165.588 753.706 164.507 752.826 163.15C751.982 161.757 751.561 160.198 751.561 158.475ZM769.491 159.96C769.894 159.52 770.224 159.08 770.481 158.64C770.737 158.2 770.866 157.797 770.866 157.43V154.515C769.986 154.148 769.032 153.873 768.006 153.69C766.979 153.47 766.007 153.36 765.091 153.36C763.184 153.36 761.607 153.782 760.361 154.625C759.151 155.432 758.546 156.513 758.546 157.87C758.546 158.603 758.747 159.3 759.151 159.96C759.554 160.62 760.141 161.152 760.911 161.555C761.681 161.958 762.597 162.16 763.661 162.16C764.761 162.16 765.842 161.958 766.906 161.555C767.969 161.115 768.831 160.583 769.491 159.96ZM798.543 167.55C796.196 167.55 794.088 167.165 792.218 166.395C790.348 165.588 788.753 164.488 787.433 163.095C786.113 161.665 785.086 160.052 784.353 158.255C783.656 156.458 783.308 154.57 783.308 152.59C783.308 149.877 783.913 147.402 785.123 145.165C786.369 142.892 788.129 141.077 790.403 139.72C792.676 138.363 795.371 137.685 798.488 137.685C801.604 137.685 804.281 138.363 806.518 139.72C808.754 141.077 810.423 142.855 811.523 145.055L804.318 147.255C803.694 146.192 802.869 145.385 801.843 144.835C800.816 144.248 799.679 143.955 798.433 143.955C797.039 143.955 795.756 144.322 794.583 145.055C793.446 145.752 792.548 146.76 791.888 148.08C791.228 149.363 790.898 150.867 790.898 152.59C790.898 154.277 791.228 155.78 791.888 157.1C792.584 158.383 793.501 159.41 794.638 160.18C795.774 160.913 797.039 161.28 798.433 161.28C799.313 161.28 800.138 161.133 800.908 160.84C801.714 160.547 802.429 160.143 803.053 159.63C803.676 159.117 804.134 158.53 804.428 157.87L811.633 160.07C810.973 161.5 810.001 162.783 808.718 163.92C807.471 165.057 805.986 165.955 804.263 166.615C802.576 167.238 800.669 167.55 798.543 167.55ZM814.188 158.475C814.188 156.605 814.701 154.973 815.728 153.58C816.791 152.15 818.258 151.05 820.128 150.28C821.998 149.51 824.143 149.125 826.562 149.125C827.773 149.125 829.001 149.217 830.248 149.4C831.494 149.583 832.576 149.877 833.493 150.28V148.74C833.493 146.907 832.943 145.495 831.843 144.505C830.779 143.515 829.184 143.02 827.058 143.02C825.481 143.02 823.978 143.295 822.548 143.845C821.118 144.395 819.614 145.202 818.038 146.265L815.673 141.425C817.579 140.178 819.523 139.243 821.503 138.62C823.519 137.997 825.628 137.685 827.828 137.685C831.934 137.685 835.124 138.712 837.398 140.765C839.708 142.818 840.863 145.752 840.863 149.565V158.75C840.863 159.52 840.991 160.07 841.248 160.4C841.541 160.73 841.999 160.932 842.623 161.005V167C841.963 167.11 841.358 167.202 840.808 167.275C840.294 167.348 839.854 167.385 839.488 167.385C838.021 167.385 836.903 167.055 836.133 166.395C835.399 165.735 834.941 164.928 834.758 163.975L834.593 162.49C833.346 164.103 831.788 165.35 829.918 166.23C828.048 167.11 826.141 167.55 824.198 167.55C822.291 167.55 820.568 167.165 819.028 166.395C817.524 165.588 816.333 164.507 815.453 163.15C814.609 161.757 814.188 160.198 814.188 158.475ZM832.118 159.96C832.521 159.52 832.851 159.08 833.108 158.64C833.364 158.2 833.493 157.797 833.493 157.43V154.515C832.613 154.148 831.659 153.873 830.633 153.69C829.606 153.47 828.634 153.36 827.718 153.36C825.811 153.36 824.234 153.782 822.988 154.625C821.778 155.432 821.173 156.513 821.173 157.87C821.173 158.603 821.374 159.3 821.778 159.96C822.181 160.62 822.768 161.152 823.538 161.555C824.308 161.958 825.224 162.16 826.288 162.16C827.388 162.16 828.469 161.958 829.533 161.555C830.596 161.115 831.458 160.583 832.118 159.96ZM845.99 152.59C845.99 149.803 846.54 147.292 847.64 145.055C848.74 142.782 850.261 140.985 852.205 139.665C854.148 138.345 856.366 137.685 858.86 137.685C860.986 137.685 862.893 138.217 864.58 139.28C866.303 140.307 867.641 141.627 868.595 143.24V126.85H875.965V158.75C875.965 159.52 876.093 160.07 876.35 160.4C876.606 160.73 877.046 160.932 877.67 161.005V167C876.386 167.257 875.341 167.385 874.535 167.385C873.215 167.385 872.115 167.055 871.235 166.395C870.391 165.735 869.915 164.873 869.805 163.81L869.695 161.995C868.631 163.792 867.183 165.167 865.35 166.12C863.553 167.073 861.665 167.55 859.685 167.55C857.705 167.55 855.871 167.165 854.185 166.395C852.535 165.625 851.086 164.562 849.84 163.205C848.63 161.848 847.676 160.272 846.98 158.475C846.32 156.642 845.99 154.68 845.99 152.59ZM868.595 156.44V149.565C868.228 148.502 867.641 147.548 866.835 146.705C866.028 145.862 865.13 145.202 864.14 144.725C863.15 144.212 862.16 143.955 861.17 143.955C860.033 143.955 859.006 144.193 858.09 144.67C857.173 145.147 856.366 145.788 855.67 146.595C855.01 147.402 854.496 148.337 854.13 149.4C853.8 150.463 853.635 151.582 853.635 152.755C853.635 153.928 853.818 155.047 854.185 156.11C854.588 157.137 855.156 158.035 855.89 158.805C856.623 159.575 857.466 160.18 858.42 160.62C859.41 161.06 860.473 161.28 861.61 161.28C862.306 161.28 863.003 161.17 863.7 160.95C864.433 160.693 865.111 160.363 865.735 159.96C866.395 159.52 866.963 159.007 867.44 158.42C867.953 157.797 868.338 157.137 868.595 156.44ZM896.564 167.55C894.254 167.55 892.164 167.165 890.294 166.395C888.424 165.588 886.829 164.507 885.509 163.15C884.189 161.757 883.162 160.18 882.429 158.42C881.732 156.623 881.384 154.735 881.384 152.755C881.384 150.005 881.989 147.493 883.199 145.22C884.445 142.947 886.205 141.132 888.479 139.775C890.789 138.382 893.502 137.685 896.619 137.685C899.772 137.685 902.467 138.382 904.704 139.775C906.94 141.132 908.645 142.947 909.819 145.22C911.029 147.457 911.634 149.877 911.634 152.48C911.634 152.92 911.615 153.378 911.579 153.855C911.542 154.295 911.505 154.662 911.469 154.955H889.194C889.34 156.422 889.762 157.705 890.459 158.805C891.192 159.905 892.109 160.748 893.209 161.335C894.345 161.885 895.555 162.16 896.839 162.16C898.305 162.16 899.68 161.812 900.964 161.115C902.284 160.382 903.182 159.428 903.659 158.255L909.984 160.015C909.287 161.482 908.279 162.783 906.959 163.92C905.675 165.057 904.154 165.955 902.394 166.615C900.634 167.238 898.69 167.55 896.564 167.55ZM889.029 150.28H904.099C903.952 148.813 903.53 147.548 902.834 146.485C902.174 145.385 901.294 144.542 900.194 143.955C899.094 143.332 897.865 143.02 896.509 143.02C895.189 143.02 893.979 143.332 892.879 143.955C891.815 144.542 890.935 145.385 890.239 146.485C889.579 147.548 889.175 148.813 889.029 150.28ZM960.894 167H953.524V150.83C953.524 148.557 953.12 146.888 952.314 145.825C951.544 144.725 950.462 144.175 949.069 144.175C947.639 144.175 946.264 144.743 944.944 145.88C943.66 146.98 942.744 148.428 942.194 150.225V167H934.824V150.83C934.824 148.52 934.42 146.833 933.614 145.77C932.844 144.707 931.762 144.175 930.369 144.175C928.939 144.175 927.564 144.725 926.244 145.825C924.96 146.925 924.044 148.373 923.494 150.17V167H916.124V138.18H922.779V143.515C923.879 141.645 925.345 140.215 927.179 139.225C929.012 138.198 931.12 137.685 933.504 137.685C935.887 137.685 937.739 138.272 939.059 139.445C940.415 140.618 941.277 142.067 941.644 143.79C942.817 141.81 944.302 140.307 946.099 139.28C947.932 138.217 949.985 137.685 952.259 137.685C954.055 137.685 955.504 138.015 956.604 138.675C957.74 139.298 958.62 140.16 959.244 141.26C959.867 142.323 960.289 143.533 960.509 144.89C960.765 146.247 960.894 147.622 960.894 149.015V167ZM967.31 167V138.18H974.68V167H967.31ZM967.31 134.165V126.85H974.68V134.165H967.31ZM994.694 167.55C992.384 167.55 990.294 167.165 988.424 166.395C986.554 165.588 984.959 164.507 983.639 163.15C982.319 161.757 981.292 160.18 980.559 158.42C979.862 156.623 979.514 154.735 979.514 152.755C979.514 150.005 980.119 147.493 981.329 145.22C982.575 142.947 984.335 141.132 986.609 139.775C988.919 138.382 991.632 137.685 994.749 137.685C997.902 137.685 1000.6 138.382 1002.83 139.775C1005.07 141.132 1006.78 142.947 1007.95 145.22C1009.16 147.457 1009.76 149.877 1009.76 152.48C1009.76 152.92 1009.75 153.378 1009.71 153.855C1009.67 154.295 1009.64 154.662 1009.6 154.955H987.324C987.47 156.422 987.892 157.705 988.589 158.805C989.322 159.905 990.239 160.748 991.339 161.335C992.475 161.885 993.685 162.16 994.969 162.16C996.435 162.16 997.81 161.812 999.094 161.115C1000.41 160.382 1001.31 159.428 1001.79 158.255L1008.11 160.015C1007.42 161.482 1006.41 162.783 1005.09 163.92C1003.81 165.057 1002.28 165.955 1000.52 166.615C998.764 167.238 996.82 167.55 994.694 167.55ZM987.159 150.28H1002.23C1002.08 148.813 1001.66 147.548 1000.96 146.485C1000.3 145.385 999.424 144.542 998.324 143.955C997.224 143.332 995.995 143.02 994.639 143.02C993.319 143.02 992.109 143.332 991.009 143.955C989.945 144.542 989.065 145.385 988.369 146.485C987.709 147.548 987.305 148.813 987.159 150.28ZM1024.87 167.55C1022.41 167.55 1020.07 167.147 1017.83 166.34C1015.59 165.533 1013.67 164.342 1012.05 162.765L1014.69 157.98C1016.42 159.373 1018.1 160.4 1019.75 161.06C1021.44 161.72 1023.05 162.05 1024.59 162.05C1026.02 162.05 1027.16 161.793 1028 161.28C1028.88 160.767 1029.32 159.997 1029.32 158.97C1029.32 158.273 1029.09 157.742 1028.61 157.375C1028.13 156.972 1027.44 156.623 1026.52 156.33C1025.64 156.037 1024.56 155.707 1023.27 155.34C1021.15 154.643 1019.37 153.965 1017.94 153.305C1016.51 152.645 1015.43 151.82 1014.69 150.83C1014 149.803 1013.65 148.502 1013.65 146.925C1013.65 145.018 1014.13 143.387 1015.08 142.03C1016.07 140.637 1017.43 139.555 1019.15 138.785C1020.91 138.015 1022.96 137.63 1025.31 137.63C1027.36 137.63 1029.31 137.96 1031.14 138.62C1032.97 139.243 1034.64 140.27 1036.14 141.7L1033.17 146.375C1031.71 145.238 1030.31 144.413 1028.99 143.9C1027.67 143.35 1026.34 143.075 1024.98 143.075C1024.21 143.075 1023.48 143.167 1022.78 143.35C1022.12 143.533 1021.57 143.845 1021.13 144.285C1020.73 144.688 1020.52 145.275 1020.52 146.045C1020.52 146.742 1020.71 147.292 1021.07 147.695C1021.48 148.062 1022.06 148.392 1022.83 148.685C1023.64 148.978 1024.61 149.308 1025.75 149.675C1028.06 150.335 1030 151.013 1031.58 151.71C1033.19 152.407 1034.4 153.268 1035.21 154.295C1036.02 155.285 1036.42 156.66 1036.42 158.42C1036.42 161.28 1035.37 163.517 1033.28 165.13C1031.19 166.743 1028.39 167.55 1024.87 167.55Z" fill="black"/>
<g filter="url(#filter0_d_1745_146)">
<path d="M87 16C87 64.0488 48.0488 103 -7.62939e-06 103V16H87Z" fill="#05046A"/>
</g>
<g filter="url(#filter1_d_1745_146)">
<path d="M87 190C87 238.049 48.0488 277 -7.62939e-06 277V190H87Z" fill="#05046A"/>
</g>
<g filter="url(#filter2_d_1745_146)">
<path d="M87 173C87 134.34 55.6599 103 17 103H0V120C0 158.66 31.3401 190 70 190H87V173Z" fill="#7E7DFF"/>
</g>
<g filter="url(#filter3_d_1745_146)">
<path d="M261 86C261 47.3401 229.66 16 191 16L174 16V33C174 71.6599 205.34 103 244 103H261V86Z" fill="#05046A"/>
</g>
<g filter="url(#filter4_d_1745_146)">
<path d="M109.754 103.273C97.3718 103.49 87.2727 113.258 86.6439 125.626L86.6034 126.423C86.4963 113.895 76.3666 103.766 63.8387 103.658L64.6353 103.618C77.0033 102.989 86.772 92.89 86.9892 80.5079C87.5352 92.8472 97.4145 102.727 109.754 103.273Z" fill="#05046A"/>
</g>
<g filter="url(#filter5_d_1745_146)">
<path d="M174 59.5C174 83.5244 154.524 103 130.5 103C106.476 103 87 83.5244 87 59.5C87 35.4756 106.476 16 130.5 16C154.524 16 174 35.4756 174 59.5Z" fill="#7E7DFF"/>
</g>
<defs>
<filter id="filter0_d_1745_146" x="-15" y="0" width="127" height="127" filterUnits="userSpaceOnUse" color-interpolation-filters="sRGB">
<feFlood flood-opacity="0" result="BackgroundImageFix"/>
<feColorMatrix in="SourceAlpha" type="matrix" values="0 0 0 0 0 0 0 0 0 0 0 0 0 0 0 0 0 0 127 0" result="hardAlpha"/>
<feOffset dx="5" dy="4"/>
<feGaussianBlur stdDeviation="10"/>
<feComposite in2="hardAlpha" operator="out"/>
<feColorMatrix type="matrix" values="0 0 0 0 0 0 0 0 0 0 0 0 0 0 0 0 0 0 0.25 0"/>
<feBlend mode="normal" in2="BackgroundImageFix" result="effect1_dropShadow_1745_146"/>
<feBlend mode="normal" in="SourceGraphic" in2="effect1_dropShadow_1745_146" result="shape"/>
</filter>
<filter id="filter1_d_1745_146" x="-15" y="174" width="127" height="127" filterUnits="userSpaceOnUse" color-interpolation-filters="sRGB">
<feFlood flood-opacity="0" result="BackgroundImageFix"/>
<feColorMatrix in="SourceAlpha" type="matrix" values="0 0 0 0 0 0 0 0 0 0 0 0 0 0 0 0 0 0 127 0" result="hardAlpha"/>
<feOffset dx="5" dy="4"/>
<feGaussianBlur stdDeviation="10"/>
<feComposite in2="hardAlpha" operator="out"/>
<feColorMatrix type="matrix" values="0 0 0 0 0 0 0 0 0 0 0 0 0 0 0 0 0 0 0.25 0"/>
<feBlend mode="normal" in2="BackgroundImageFix" result="effect1_dropShadow_1745_146"/>
<feBlend mode="normal" in="SourceGraphic" in2="effect1_dropShadow_1745_146" result="shape"/>
</filter>
<filter id="filter2_d_1745_146" x="-15" y="87" width="127" height="127" filterUnits="userSpaceOnUse" color-interpolation-filters="sRGB">
<feFlood flood-opacity="0" result="BackgroundImageFix"/>
<feColorMatrix in="SourceAlpha" type="matrix" values="0 0 0 0 0 0 0 0 0 0 0 0 0 0 0 0 0 0 127 0" result="hardAlpha"/>
<feOffset dx="5" dy="4"/>
<feGaussianBlur stdDeviation="10"/>
<feComposite in2="hardAlpha" operator="out"/>
<feColorMatrix type="matrix" values="0 0 0 0 0 0 0 0 0 0 0 0 0 0 0 0 0 0 0.25 0"/>
<feBlend mode="normal" in2="BackgroundImageFix" result="effect1_dropShadow_1745_146"/>
<feBlend mode="normal" in="SourceGraphic" in2="effect1_dropShadow_1745_146" result="shape"/>
</filter>
<filter id="filter3_d_1745_146" x="159" y="0" width="127" height="127" filterUnits="userSpaceOnUse" color-interpolation-filters="sRGB">
<feFlood flood-opacity="0" result="BackgroundImageFix"/>
<feColorMatrix in="SourceAlpha" type="matrix" values="0 0 0 0 0 0 0 0 0 0 0 0 0 0 0 0 0 0 127 0" result="hardAlpha"/>
<feOffset dx="5" dy="4"/>
<feGaussianBlur stdDeviation="10"/>
<feComposite in2="hardAlpha" operator="out"/>
<feColorMatrix type="matrix" values="0 0 0 0 0 0 0 0 0 0 0 0 0 0 0 0 0 0 0.25 0"/>
<feBlend mode="normal" in2="BackgroundImageFix" result="effect1_dropShadow_1745_146"/>
<feBlend mode="normal" in="SourceGraphic" in2="effect1_dropShadow_1745_146" result="shape"/>
</filter>
<filter id="filter4_d_1745_146" x="48.8389" y="64.5079" width="85.915" height="85.9152" filterUnits="userSpaceOnUse" color-interpolation-filters="sRGB">
<feFlood flood-opacity="0" result="BackgroundImageFix"/>
<feColorMatrix in="SourceAlpha" type="matrix" values="0 0 0 0 0 0 0 0 0 0 0 0 0 0 0 0 0 0 127 0" result="hardAlpha"/>
<feOffset dx="5" dy="4"/>
<feGaussianBlur stdDeviation="10"/>
<feComposite in2="hardAlpha" operator="out"/>
<feColorMatrix type="matrix" values="0 0 0 0 0 0 0 0 0 0 0 0 0 0 0 0 0 0 0.25 0"/>
<feBlend mode="normal" in2="BackgroundImageFix" result="effect1_dropShadow_1745_146"/>
<feBlend mode="normal" in="SourceGraphic" in2="effect1_dropShadow_1745_146" result="shape"/>
</filter>
<filter id="filter5_d_1745_146" x="72" y="0" width="127" height="127" filterUnits="userSpaceOnUse" color-interpolation-filters="sRGB">
<feFlood flood-opacity="0" result="BackgroundImageFix"/>
<feColorMatrix in="SourceAlpha" type="matrix" values="0 0 0 0 0 0 0 0 0 0 0 0 0 0 0 0 0 0 127 0" result="hardAlpha"/>
<feOffset dx="5" dy="4"/>
<feGaussianBlur stdDeviation="10"/>
<feComposite in2="hardAlpha" operator="out"/>
<feColorMatrix type="matrix" values="0 0 0 0 0 0 0 0 0 0 0 0 0 0 0 0 0 0 0.25 0"/>
<feBlend mode="normal" in2="BackgroundImageFix" result="effect1_dropShadow_1745_146"/>
<feBlend mode="normal" in="SourceGraphic" in2="effect1_dropShadow_1745_146" result="shape"/>
</filter>
</defs>
</svg>
