<svg width="1440" height="1510" viewBox="0 0 1440 1510" fill="none" xmlns="http://www.w3.org/2000/svg">
<path d="M1473 1196L1252.24 1182.33C1194.34 1178.75 1139.16 1156.51 1094.96 1118.96V1118.96C1021.8 1056.8 987.388 960.319 1004.69 865.895L1011.65 827.948C1025.88 750.33 1012.27 670.182 973.232 601.606L915.735 500.609C841.677 370.52 719.69 223.916 572.399 250.62V250.62C563.337 252.263 477.036 283.684 403.774 316.977C359.629 337.037 347.86 390.749 375.214 430.785L384.729 444.711C415.524 489.782 482.563 488.077 511.027 441.498V441.498C527.417 414.676 525.402 380.49 505.973 355.78L409.623 233.235C392.823 211.867 373.192 192.886 351.271 176.815L247.797 100.95L240.584 95.6616C163.499 39.1449 58.7782 38.7307 -18.7515 94.6359V94.6359" stroke="#7E7DFF" stroke-width="20" stroke-linecap="round"/>
<path d="M1657.87 147.089L1528.9 90.9527C1516.8 85.6864 1503.96 82.3199 1490.84 80.9719L1468.11 78.6378C1387.93 70.4044 1325.18 146.381 1348.41 223.558V223.558C1360.23 262.814 1349.85 305.391 1321.29 334.803L1189.29 470.743V470.743C1121.8 554.662 1117.73 673.022 1179.27 761.388L1213.6 810.68L1257.01 869.897C1326.54 964.733 1404.07 1053.44 1488.74 1135.03V1135.03" stroke="#05046A" stroke-width="20" stroke-linecap="round"/>
<path d="M-97 1499.5L44.5139 1480.82C68.3794 1477.67 90.922 1468.02 109.684 1452.94V1452.94C154.735 1416.73 170.855 1355.34 149.409 1301.67L136.749 1269.98C112.831 1210.12 123.227 1141.99 163.912 1091.99L259.5 974.5V974.5C319.369 884.992 313.064 766.73 244.017 684.096L205.5 638L157.066 582.814C79.4979 494.434 -5.50161 412.864 -97 339V339" stroke="#FFD60A" stroke-width="20" stroke-linecap="round"/>
</svg>
