<svg width="1440" height="3646" viewBox="0 0 1440 3646" fill="none" xmlns="http://www.w3.org/2000/svg">
<path d="M-2 349.5L207.998 361.42C266.039 364.714 321.37 387.073 365.406 425.026V425.026C435.58 485.508 468.921 578.346 453.26 669.654L445.937 712.349C432.716 789.428 446.421 868.708 484.75 936.876L542.974 1040.43C613.891 1166.56 731.939 1310 874 1282.5V1282.5C882.805 1280.8 967.099 1248.57 1037.97 1214.75C1079.99 1194.69 1090.88 1143.17 1064.86 1104.56L1055.21 1090.25C1025.01 1045.44 958.36 1047.55 931.059 1094.19V1094.19C915.921 1120.05 918.031 1152.52 936.39 1176.2L1030.74 1297.92C1047.5 1319.54 1067.13 1338.77 1089.09 1355.1L1188.5 1429L1195.48 1434.19C1269.91 1489.52 1371.88 1489.24 1446 1433.5V1433.5" stroke="#7E7DFF" stroke-width="20" stroke-linecap="round"/>
<path d="M59 2356.43L190.535 2192.29C226.89 2146.93 277.201 2114.83 333.662 2100.98V2100.98C423.637 2078.91 518.597 2105.61 583.884 2171.34L614.411 2202.07C669.524 2257.56 742.051 2292.39 819.811 2300.72L937.934 2313.36C1081.81 2328.77 1267.13 2315.83 1327.15 2184.17V2184.17C1330.87 2176.01 1353.52 2088.65 1367.08 2011.31C1375.13 1965.45 1339.48 1926.69 1292.93 1925.48L1275.68 1925.04C1221.65 1923.64 1184.72 1979.16 1206.87 2028.45V2028.45C1219.15 2055.78 1246.82 2072.9 1276.76 2071.69L1430.63 2065.44C1457.97 2064.34 1485.02 2059.51 1511.05 2051.09L1628.92 2012.99L1637.2 2010.32C1725.45 1981.79 1784.37 1898.57 1781.97 1805.86V1805.86" stroke="#7E7DFF" stroke-width="20" stroke-linecap="round"/>
<path d="M0.5 2010L142.014 1991.32C165.879 1988.17 188.422 1978.52 207.184 1963.44V1963.44C252.235 1927.23 268.355 1865.84 246.909 1812.17L234.249 1780.48C210.331 1720.62 220.727 1652.49 261.412 1602.49L357 1485V1485C416.869 1395.49 410.564 1277.23 341.517 1194.6L303 1148.5L254.566 1093.31C176.998 1004.93 91.9984 923.364 0.5 849.5V849.5" stroke="#FFD60A" stroke-width="20" stroke-linecap="round"/>
<path d="M1582.8 2625.87L1450.51 2572.25C1428.2 2563.21 1403.84 2560.46 1380.08 2564.32V2564.32C1323.02 2573.57 1278.7 2618.99 1270.85 2676.26L1266.21 2710.06C1257.46 2773.93 1214.78 2828.04 1154.71 2851.44L1013.58 2906.42V2906.42C917.329 2954.7 864.425 3060.66 883.674 3166.61L894.411 3225.71L909.285 3297.61C933.106 3412.77 966.752 3525.67 1009.85 3635.07V3635.07" stroke="#FFD60A" stroke-width="20" stroke-linecap="round"/>
<path d="M1321.26 10.0001L1201.05 86.9742C1180.78 99.9555 1164.46 118.253 1153.87 139.872V139.872C1128.44 191.78 1139.9 254.204 1182.1 293.705L1207.01 317.023C1254.07 361.079 1273.57 427.176 1257.95 489.722L1221.26 636.672V636.672C1205.03 743.127 1260.93 847.535 1358.52 893.056L1412.96 918.449L1480.24 947.863C1587.98 994.971 1699.56 1032.76 1813.76 1060.81V1060.81" stroke="#05046A" stroke-width="20" stroke-linecap="round"/>
</svg>
