<svg width="172" height="41" viewBox="0 0 172 41" fill="none" xmlns="http://www.w3.org/2000/svg">
<rect width="172" height="41" fill="#E8E8E8"/>
<g id="homepage - yana" clip-path="url(#clip0_278_2702)">
<rect width="1440" height="3773" transform="translate(-60 -681)" fill="#EBECF0"/>
<g id="home container">
<g id="btn">
<path id="Rectangle 9" d="M0 19.9999C0 8.95418 8.9543 -0.00012207 20 -0.00012207H172V20.9999C172 32.0456 163.046 40.9999 152 40.9999H0V19.9999Z" fill="#FFD60A"/>
<path id="Our Partners" d="M26.75 29.11C25.6207 29.11 24.6013 28.89 23.692 28.45C22.7827 28.01 21.998 27.416 21.338 26.668C20.678 25.9053 20.1647 25.0547 19.798 24.116C19.446 23.1627 19.27 22.1873 19.27 21.19C19.27 20.1487 19.4607 19.1587 19.842 18.22C20.2233 17.2667 20.7513 16.4233 21.426 15.69C22.1007 14.942 22.8927 14.3553 23.802 13.93C24.726 13.49 25.7233 13.27 26.794 13.27C27.9087 13.27 28.9207 13.4973 29.83 13.952C30.754 14.4067 31.5387 15.0153 32.184 15.778C32.844 16.5407 33.35 17.3913 33.702 18.33C34.0687 19.2687 34.252 20.2293 34.252 21.212C34.252 22.2533 34.0613 23.2507 33.68 24.204C33.3133 25.1427 32.7927 25.986 32.118 26.734C31.4433 27.4673 30.644 28.0467 29.72 28.472C28.8107 28.8973 27.8207 29.11 26.75 29.11ZM21.778 21.19C21.778 21.9233 21.8953 22.6347 22.13 23.324C22.3647 24.0133 22.6947 24.6293 23.12 25.172C23.56 25.7 24.088 26.118 24.704 26.426C25.32 26.734 26.0093 26.888 26.772 26.888C27.564 26.888 28.268 26.7267 28.884 26.404C29.5 26.0813 30.0133 25.6487 30.424 25.106C30.8493 24.5487 31.172 23.9327 31.392 23.258C31.612 22.5687 31.722 21.8793 31.722 21.19C31.722 20.4567 31.6047 19.7527 31.37 19.078C31.15 18.3887 30.82 17.78 30.38 17.252C29.94 16.7093 29.412 16.284 28.796 15.976C28.1947 15.668 27.52 15.514 26.772 15.514C25.98 15.514 25.276 15.6753 24.66 15.998C24.044 16.3207 23.5233 16.7533 23.098 17.296C22.6727 17.8387 22.3427 18.4473 22.108 19.122C21.888 19.7967 21.778 20.486 21.778 21.19ZM36.385 24.534V17.494H38.805V24.05C38.805 25.0767 38.9883 25.854 39.355 26.382C39.7363 26.8953 40.2863 27.152 41.005 27.152C41.4596 27.152 41.8996 27.0567 42.325 26.866C42.765 26.6753 43.161 26.3967 43.513 26.03C43.8796 25.6487 44.173 25.194 44.393 24.666V17.494H46.813V26.272C46.813 26.5507 46.8643 26.7487 46.967 26.866C47.0696 26.9833 47.2383 27.0493 47.473 27.064V29C47.2236 29.044 47.0183 29.0733 46.857 29.088C46.6956 29.1027 46.5416 29.11 46.395 29.11C45.955 29.11 45.5883 28.9927 45.295 28.758C45.0016 28.5087 44.833 28.1933 44.789 27.812L44.745 26.668C44.2316 27.504 43.5643 28.142 42.743 28.582C41.9216 29.0073 41.0196 29.22 40.037 29.22C38.8343 29.22 37.925 28.824 37.309 28.032C36.693 27.24 36.385 26.074 36.385 24.534ZM56.3692 19.584C55.4306 19.5987 54.5946 19.8113 53.8612 20.222C53.1426 20.6327 52.6292 21.212 52.3212 21.96V29H49.9012V17.494H52.1452V20.068C52.5412 19.276 53.0619 18.6453 53.7072 18.176C54.3526 17.692 55.0346 17.428 55.7532 17.384C55.8999 17.384 56.0172 17.384 56.1052 17.384C56.2079 17.384 56.2959 17.3913 56.3692 17.406V19.584ZM63.3791 29V13.38H69.9351C70.6391 13.38 71.2845 13.5267 71.8711 13.82C72.4578 14.1133 72.9711 14.502 73.4111 14.986C73.8511 15.47 74.1885 16.0127 74.4231 16.614C74.6578 17.2153 74.7751 17.8313 74.7751 18.462C74.7751 19.3273 74.5771 20.156 74.1811 20.948C73.7998 21.7253 73.2498 22.356 72.5311 22.84C71.8271 23.324 71.0058 23.566 70.0671 23.566H65.8431V29H63.3791ZM65.8431 21.388H69.9131C70.3825 21.388 70.7931 21.2633 71.1451 21.014C71.4971 20.75 71.7685 20.398 71.9591 19.958C72.1645 19.518 72.2671 19.0193 72.2671 18.462C72.2671 17.89 72.1498 17.384 71.9151 16.944C71.6805 16.504 71.3725 16.1667 70.9911 15.932C70.6245 15.6827 70.2211 15.558 69.7811 15.558H65.8431V21.388ZM75.8133 25.634C75.8133 24.9007 76.0186 24.2627 76.4293 23.72C76.8546 23.1627 77.4339 22.7373 78.1673 22.444C78.9006 22.136 79.7513 21.982 80.7193 21.982C81.2326 21.982 81.7533 22.0187 82.2813 22.092C82.8239 22.1653 83.3006 22.2827 83.7113 22.444V21.718C83.7113 20.9113 83.4693 20.2807 82.9853 19.826C82.5013 19.3713 81.8046 19.144 80.8953 19.144C80.2499 19.144 79.6413 19.2613 79.0693 19.496C78.4973 19.716 77.8886 20.0313 77.2433 20.442L76.4293 18.814C77.1919 18.3007 77.9546 17.9193 78.7173 17.67C79.4946 17.4207 80.3086 17.296 81.1593 17.296C82.6993 17.296 83.9093 17.7067 84.7893 18.528C85.6839 19.3347 86.1313 20.486 86.1313 21.982V26.272C86.1313 26.5507 86.1753 26.7487 86.2633 26.866C86.3659 26.9833 86.5346 27.0493 86.7693 27.064V29C86.5493 29.044 86.3513 29.0733 86.1753 29.088C85.9993 29.1027 85.8526 29.11 85.7353 29.11C85.2219 29.11 84.8333 28.9853 84.5693 28.736C84.3053 28.4867 84.1513 28.1933 84.1073 27.856L84.0413 27.196C83.5426 27.8413 82.9046 28.34 82.1273 28.692C81.3499 29.044 80.5653 29.22 79.7733 29.22C79.0106 29.22 78.3286 29.066 77.7273 28.758C77.1259 28.4353 76.6566 28.0027 76.3193 27.46C75.9819 26.9173 75.8133 26.3087 75.8133 25.634ZM83.1393 26.338C83.3153 26.1473 83.4546 25.9567 83.5573 25.766C83.6599 25.5753 83.7113 25.4067 83.7113 25.26V23.94C83.3006 23.7787 82.8679 23.6613 82.4133 23.588C81.9586 23.5 81.5113 23.456 81.0713 23.456C80.1913 23.456 79.4726 23.632 78.9153 23.984C78.3726 24.336 78.1013 24.82 78.1013 25.436C78.1013 25.7733 78.1893 26.096 78.3653 26.404C78.5559 26.712 78.8199 26.9613 79.1573 27.152C79.5093 27.3427 79.9419 27.438 80.4553 27.438C80.9833 27.438 81.4893 27.3353 81.9733 27.13C82.4573 26.9247 82.8459 26.6607 83.1393 26.338ZM95.5352 19.584C94.5966 19.5987 93.7606 19.8113 93.0272 20.222C92.3086 20.6327 91.7952 21.212 91.4872 21.96V29H89.0672V17.494H91.3112V20.068C91.7072 19.276 92.2279 18.6453 92.8732 18.176C93.5186 17.692 94.2006 17.428 94.9192 17.384C95.0659 17.384 95.1832 17.384 95.2712 17.384C95.3739 17.384 95.4619 17.3913 95.5352 17.406V19.584ZM103.698 28.406C103.492 28.5087 103.236 28.6187 102.928 28.736C102.62 28.8533 102.268 28.956 101.872 29.044C101.49 29.132 101.094 29.176 100.684 29.176C100.185 29.176 99.7231 29.088 99.2978 28.912C98.8724 28.736 98.5278 28.4573 98.2638 28.076C98.0144 27.68 97.8898 27.174 97.8898 26.558V19.364H96.3718V17.494H97.8898V13.71H100.31V17.494H102.818V19.364H100.31V25.788C100.339 26.184 100.464 26.4773 100.684 26.668C100.918 26.8587 101.204 26.954 101.542 26.954C101.879 26.954 102.202 26.8953 102.51 26.778C102.818 26.6607 103.045 26.5653 103.192 26.492L103.698 28.406ZM115.692 29H113.272V22.554C113.272 21.4833 113.096 20.6987 112.744 20.2C112.407 19.7013 111.901 19.452 111.226 19.452C110.757 19.452 110.287 19.5693 109.818 19.804C109.363 20.0387 108.953 20.3613 108.586 20.772C108.219 21.168 107.955 21.63 107.794 22.158V29H105.374V17.494H107.574V19.804C107.867 19.2907 108.249 18.8507 108.718 18.484C109.202 18.1027 109.745 17.8093 110.346 17.604C110.947 17.3987 111.585 17.296 112.26 17.296C112.949 17.296 113.514 17.4207 113.954 17.67C114.409 17.9193 114.761 18.264 115.01 18.704C115.274 19.1293 115.45 19.628 115.538 20.2C115.641 20.7573 115.692 21.3513 115.692 21.982V29ZM123.715 29.22C122.82 29.22 122.006 29.066 121.273 28.758C120.554 28.4353 119.931 28.0027 119.403 27.46C118.875 26.9027 118.464 26.272 118.171 25.568C117.892 24.8493 117.753 24.0867 117.753 23.28C117.753 22.1947 118.002 21.2047 118.501 20.31C118.999 19.4007 119.696 18.6747 120.591 18.132C121.485 17.5747 122.534 17.296 123.737 17.296C124.939 17.296 125.973 17.5747 126.839 18.132C127.719 18.6747 128.401 19.3933 128.885 20.288C129.369 21.1827 129.611 22.1433 129.611 23.17C129.611 23.346 129.603 23.5147 129.589 23.676C129.574 23.8227 129.559 23.9473 129.545 24.05H120.327C120.371 24.7247 120.554 25.3187 120.877 25.832C121.214 26.3307 121.639 26.7267 122.153 27.02C122.666 27.2987 123.216 27.438 123.803 27.438C124.448 27.438 125.057 27.2767 125.629 26.954C126.215 26.6313 126.611 26.206 126.817 25.678L128.885 26.272C128.635 26.8293 128.254 27.3353 127.741 27.79C127.242 28.23 126.648 28.582 125.959 28.846C125.269 29.0953 124.521 29.22 123.715 29.22ZM120.261 22.444H127.213C127.169 21.784 126.978 21.2047 126.641 20.706C126.318 20.1927 125.9 19.7967 125.387 19.518C124.888 19.2247 124.331 19.078 123.715 19.078C123.113 19.078 122.556 19.2247 122.043 19.518C121.544 19.7967 121.133 20.1927 120.811 20.706C120.488 21.2047 120.305 21.784 120.261 22.444ZM138.053 19.584C137.114 19.5987 136.278 19.8113 135.545 20.222C134.826 20.6327 134.313 21.212 134.005 21.96V29H131.585V17.494H133.829V20.068C134.225 19.276 134.745 18.6453 135.391 18.176C136.036 17.692 136.718 17.428 137.437 17.384C137.583 17.384 137.701 17.384 137.789 17.384C137.891 17.384 137.979 17.3913 138.053 17.406V19.584ZM143.905 29.22C142.937 29.22 142.021 29.066 141.155 28.758C140.29 28.4353 139.549 27.9587 138.933 27.328L139.835 25.7C140.495 26.2867 141.155 26.712 141.815 26.976C142.49 27.24 143.157 27.372 143.817 27.372C144.492 27.372 145.042 27.2473 145.467 26.998C145.893 26.734 146.105 26.3527 146.105 25.854C146.105 25.4873 145.995 25.216 145.775 25.04C145.555 24.864 145.233 24.71 144.807 24.578C144.397 24.446 143.898 24.2993 143.311 24.138C142.49 23.8887 141.801 23.632 141.243 23.368C140.686 23.0893 140.268 22.752 139.989 22.356C139.711 21.96 139.571 21.454 139.571 20.838C139.571 20.09 139.762 19.452 140.143 18.924C140.525 18.396 141.053 17.9927 141.727 17.714C142.417 17.4353 143.209 17.296 144.103 17.296C144.939 17.296 145.709 17.428 146.413 17.692C147.132 17.9413 147.763 18.3373 148.305 18.88L147.271 20.486C146.758 20.0167 146.23 19.672 145.687 19.452C145.159 19.232 144.587 19.122 143.971 19.122C143.619 19.122 143.282 19.166 142.959 19.254C142.637 19.3273 142.365 19.474 142.145 19.694C141.94 19.8993 141.837 20.1927 141.837 20.574C141.837 20.882 141.925 21.1313 142.101 21.322C142.277 21.5127 142.541 21.674 142.893 21.806C143.245 21.938 143.678 22.0847 144.191 22.246C145.086 22.51 145.849 22.774 146.479 23.038C147.11 23.2873 147.594 23.6173 147.931 24.028C148.283 24.424 148.459 24.974 148.459 25.678C148.459 26.7927 148.041 27.6653 147.205 28.296C146.384 28.912 145.284 29.22 143.905 29.22Z" fill="black"/>
</g>
</g>
</g>
<defs>
<clipPath id="clip0_278_2702">
<rect width="1440" height="3773" fill="white" transform="translate(-60 -681)"/>
</clipPath>
</defs>
</svg>
