<svg width="405" height="406" viewBox="0 0 405 406" fill="none" xmlns="http://www.w3.org/2000/svg">
<g filter="url(#filter0_d_1323_42)">
<path d="M275 376C275 320.772 319.772 276 375 276H405V406H275V376Z" fill="#FFD60A"/>
</g>
<g filter="url(#filter1_d_1323_42)">
<path d="M275 116C275 60.7715 319.772 16 375 16H405V146H275V116Z" fill="#FFD60A"/>
</g>
<g filter="url(#filter2_d_1323_42)">
<path d="M275 176C275 231.228 319.772 276 375 276H405V246C405 190.772 360.228 146 305 146H275V176Z" fill="#7E7DFF"/>
</g>
<g filter="url(#filter3_d_1323_42)">
<path d="M15 306C15 361.228 59.7715 406 115 406H145V376C145 320.772 100.228 276 45 276H15V306Z" fill="#7E7DFF"/>
</g>
<g filter="url(#filter4_d_1323_42)">
<path d="M241 275.593C259.502 275.268 274.593 260.671 275.532 242.19L275.593 241C275.753 259.72 290.889 274.856 309.609 275.016L308.419 275.077C289.938 276.016 275.341 291.107 275.016 309.609C274.2 291.171 259.438 276.409 241 275.593Z" fill="#05046A"/>
</g>
<g filter="url(#filter5_d_1323_42)">
<path d="M145 341C145 305.101 174.101 276 210 276C245.899 276 275 305.101 275 341C275 376.899 245.899 406 210 406C174.101 406 145 376.899 145 341Z" fill="#05046A"/>
</g>
<defs>
<filter id="filter0_d_1323_42" x="260" y="260" width="170" height="170" filterUnits="userSpaceOnUse" color-interpolation-filters="sRGB">
<feFlood flood-opacity="0" result="BackgroundImageFix"/>
<feColorMatrix in="SourceAlpha" type="matrix" values="0 0 0 0 0 0 0 0 0 0 0 0 0 0 0 0 0 0 127 0" result="hardAlpha"/>
<feOffset dx="5" dy="4"/>
<feGaussianBlur stdDeviation="10"/>
<feComposite in2="hardAlpha" operator="out"/>
<feColorMatrix type="matrix" values="0 0 0 0 0 0 0 0 0 0 0 0 0 0 0 0 0 0 0.25 0"/>
<feBlend mode="normal" in2="BackgroundImageFix" result="effect1_dropShadow_1323_42"/>
<feBlend mode="normal" in="SourceGraphic" in2="effect1_dropShadow_1323_42" result="shape"/>
</filter>
<filter id="filter1_d_1323_42" x="260" y="0" width="170" height="170" filterUnits="userSpaceOnUse" color-interpolation-filters="sRGB">
<feFlood flood-opacity="0" result="BackgroundImageFix"/>
<feColorMatrix in="SourceAlpha" type="matrix" values="0 0 0 0 0 0 0 0 0 0 0 0 0 0 0 0 0 0 127 0" result="hardAlpha"/>
<feOffset dx="5" dy="4"/>
<feGaussianBlur stdDeviation="10"/>
<feComposite in2="hardAlpha" operator="out"/>
<feColorMatrix type="matrix" values="0 0 0 0 0 0 0 0 0 0 0 0 0 0 0 0 0 0 0.25 0"/>
<feBlend mode="normal" in2="BackgroundImageFix" result="effect1_dropShadow_1323_42"/>
<feBlend mode="normal" in="SourceGraphic" in2="effect1_dropShadow_1323_42" result="shape"/>
</filter>
<filter id="filter2_d_1323_42" x="260" y="130" width="170" height="170" filterUnits="userSpaceOnUse" color-interpolation-filters="sRGB">
<feFlood flood-opacity="0" result="BackgroundImageFix"/>
<feColorMatrix in="SourceAlpha" type="matrix" values="0 0 0 0 0 0 0 0 0 0 0 0 0 0 0 0 0 0 127 0" result="hardAlpha"/>
<feOffset dx="5" dy="4"/>
<feGaussianBlur stdDeviation="10"/>
<feComposite in2="hardAlpha" operator="out"/>
<feColorMatrix type="matrix" values="0 0 0 0 0 0 0 0 0 0 0 0 0 0 0 0 0 0 0.25 0"/>
<feBlend mode="normal" in2="BackgroundImageFix" result="effect1_dropShadow_1323_42"/>
<feBlend mode="normal" in="SourceGraphic" in2="effect1_dropShadow_1323_42" result="shape"/>
</filter>
<filter id="filter3_d_1323_42" x="0" y="260" width="170" height="170" filterUnits="userSpaceOnUse" color-interpolation-filters="sRGB">
<feFlood flood-opacity="0" result="BackgroundImageFix"/>
<feColorMatrix in="SourceAlpha" type="matrix" values="0 0 0 0 0 0 0 0 0 0 0 0 0 0 0 0 0 0 127 0" result="hardAlpha"/>
<feOffset dx="5" dy="4"/>
<feGaussianBlur stdDeviation="10"/>
<feComposite in2="hardAlpha" operator="out"/>
<feColorMatrix type="matrix" values="0 0 0 0 0 0 0 0 0 0 0 0 0 0 0 0 0 0 0.25 0"/>
<feBlend mode="normal" in2="BackgroundImageFix" result="effect1_dropShadow_1323_42"/>
<feBlend mode="normal" in="SourceGraphic" in2="effect1_dropShadow_1323_42" result="shape"/>
</filter>
<filter id="filter4_d_1323_42" x="226" y="225" width="108.609" height="108.609" filterUnits="userSpaceOnUse" color-interpolation-filters="sRGB">
<feFlood flood-opacity="0" result="BackgroundImageFix"/>
<feColorMatrix in="SourceAlpha" type="matrix" values="0 0 0 0 0 0 0 0 0 0 0 0 0 0 0 0 0 0 127 0" result="hardAlpha"/>
<feOffset dx="5" dy="4"/>
<feGaussianBlur stdDeviation="10"/>
<feComposite in2="hardAlpha" operator="out"/>
<feColorMatrix type="matrix" values="0 0 0 0 0 0 0 0 0 0 0 0 0 0 0 0 0 0 0.25 0"/>
<feBlend mode="normal" in2="BackgroundImageFix" result="effect1_dropShadow_1323_42"/>
<feBlend mode="normal" in="SourceGraphic" in2="effect1_dropShadow_1323_42" result="shape"/>
</filter>
<filter id="filter5_d_1323_42" x="130" y="260" width="170" height="170" filterUnits="userSpaceOnUse" color-interpolation-filters="sRGB">
<feFlood flood-opacity="0" result="BackgroundImageFix"/>
<feColorMatrix in="SourceAlpha" type="matrix" values="0 0 0 0 0 0 0 0 0 0 0 0 0 0 0 0 0 0 127 0" result="hardAlpha"/>
<feOffset dx="5" dy="4"/>
<feGaussianBlur stdDeviation="10"/>
<feComposite in2="hardAlpha" operator="out"/>
<feColorMatrix type="matrix" values="0 0 0 0 0 0 0 0 0 0 0 0 0 0 0 0 0 0 0.25 0"/>
<feBlend mode="normal" in2="BackgroundImageFix" result="effect1_dropShadow_1323_42"/>
<feBlend mode="normal" in="SourceGraphic" in2="effect1_dropShadow_1323_42" result="shape"/>
</filter>
</defs>
</svg>
