<svg width="292" height="84" viewBox="0 0 292 84" fill="none" xmlns="http://www.w3.org/2000/svg">
<g filter="url(#filter0_d_1323_450)">
<path d="M15 46C15 29.4315 28.4315 16 45 16H267V30C267 46.5685 253.569 60 237 60H15V46Z" fill="#FFD60A"/>
</g>
<path d="M66.78 38.8C66.78 37.9333 66.9267 37.0867 67.22 36.26C67.5267 35.42 67.9667 34.66 68.54 33.98C69.1267 33.2867 69.84 32.74 70.68 32.34C71.52 31.9267 72.4733 31.72 73.54 31.72C74.8067 31.72 75.8933 32.0133 76.8 32.6C77.7067 33.1733 78.38 33.9133 78.82 34.82L77.4 35.74C77.12 35.14 76.76 34.6667 76.32 34.32C75.8933 33.96 75.4267 33.7067 74.92 33.56C74.4267 33.4133 73.94 33.34 73.46 33.34C72.6733 33.34 71.9733 33.5 71.36 33.82C70.76 34.14 70.2533 34.5667 69.84 35.1C69.4267 35.6333 69.1133 36.2333 68.9 36.9C68.7 37.5533 68.6 38.2133 68.6 38.88C68.6 39.6133 68.72 40.32 68.96 41C69.2133 41.68 69.56 42.28 70 42.8C70.44 43.32 70.96 43.7333 71.56 44.04C72.16 44.3467 72.8133 44.5 73.52 44.5C74.0133 44.5 74.52 44.4133 75.04 44.24C75.56 44.0667 76.0467 43.8 76.5 43.44C76.9533 43.0667 77.3133 42.5867 77.58 42L79.08 42.82C78.7867 43.5267 78.3333 44.1267 77.72 44.62C77.1067 45.1133 76.42 45.4867 75.66 45.74C74.9133 45.9933 74.1733 46.12 73.44 46.12C72.4667 46.12 71.5733 45.9133 70.76 45.5C69.9467 45.0733 69.24 44.5133 68.64 43.82C68.0533 43.1133 67.5933 42.3267 67.26 41.46C66.94 40.58 66.78 39.6933 66.78 38.8ZM85.6128 46.2C84.8261 46.2 84.1128 46.06 83.4728 45.78C82.8328 45.4867 82.2795 45.0933 81.8128 44.6C81.3461 44.0933 80.9861 43.5133 80.7328 42.86C80.4795 42.2067 80.3528 41.52 80.3528 40.8C80.3528 40.0667 80.4795 39.3733 80.7328 38.72C80.9861 38.0667 81.3461 37.4933 81.8128 37C82.2795 36.4933 82.8328 36.1 83.4728 35.82C84.1261 35.5267 84.8395 35.38 85.6128 35.38C86.3995 35.38 87.1128 35.5267 87.7528 35.82C88.3928 36.1 88.9461 36.4933 89.4128 37C89.8928 37.4933 90.2595 38.0667 90.5128 38.72C90.7661 39.3733 90.8928 40.0667 90.8928 40.8C90.8928 41.52 90.7661 42.2067 90.5128 42.86C90.2595 43.5133 89.8995 44.0933 89.4328 44.6C88.9661 45.0933 88.4061 45.4867 87.7528 45.78C87.1128 46.06 86.3995 46.2 85.6128 46.2ZM82.1528 40.82C82.1528 41.54 82.3061 42.1933 82.6128 42.78C82.9328 43.3667 83.3528 43.8333 83.8728 44.18C84.3928 44.5133 84.9728 44.68 85.6128 44.68C86.2528 44.68 86.8328 44.5067 87.3528 44.16C87.8861 43.8133 88.3061 43.3467 88.6128 42.76C88.9328 42.16 89.0928 41.5 89.0928 40.78C89.0928 40.06 88.9328 39.4067 88.6128 38.82C88.3061 38.2333 87.8861 37.7667 87.3528 37.42C86.8328 37.0733 86.2528 36.9 85.6128 36.9C84.9728 36.9 84.3928 37.08 83.8728 37.44C83.3528 37.7867 82.9328 38.2533 82.6128 38.84C82.3061 39.4267 82.1528 40.0867 82.1528 40.82ZM102.085 46H100.325V40.16C100.325 39.0533 100.152 38.2467 99.8055 37.74C99.4721 37.22 98.9588 36.96 98.2655 36.96C97.7855 36.96 97.3055 37.08 96.8255 37.32C96.3588 37.56 95.9388 37.8867 95.5655 38.3C95.2055 38.7 94.9455 39.1667 94.7855 39.7V46H93.0255V35.56H94.6255V37.8C94.9055 37.3067 95.2655 36.88 95.7055 36.52C96.1455 36.16 96.6455 35.88 97.2055 35.68C97.7655 35.48 98.3521 35.38 98.9655 35.38C99.5655 35.38 100.065 35.4933 100.465 35.72C100.879 35.9333 101.199 36.24 101.425 36.64C101.665 37.0267 101.832 37.4867 101.925 38.02C102.032 38.5533 102.085 39.1333 102.085 39.76V46ZM110.125 45.48C109.978 45.5467 109.778 45.6333 109.525 45.74C109.271 45.8467 108.978 45.94 108.645 46.02C108.311 46.1 107.958 46.14 107.585 46.14C107.158 46.14 106.765 46.0667 106.405 45.92C106.045 45.76 105.758 45.52 105.545 45.2C105.331 44.8667 105.225 44.4533 105.225 43.96V36.94H103.805V35.56H105.225V32.08H106.985V35.56H109.325V36.94H106.985V43.42C107.011 43.7933 107.138 44.0733 107.365 44.26C107.591 44.4333 107.858 44.52 108.165 44.52C108.511 44.52 108.831 44.46 109.125 44.34C109.418 44.22 109.611 44.1333 109.705 44.08L110.125 45.48ZM110.936 42.98C110.936 42.3133 111.123 41.74 111.496 41.26C111.883 40.7667 112.409 40.3867 113.076 40.12C113.743 39.8533 114.516 39.72 115.396 39.72C115.863 39.72 116.356 39.76 116.876 39.84C117.396 39.9067 117.856 40.0133 118.256 40.16V39.4C118.256 38.6 118.016 37.9733 117.536 37.52C117.056 37.0533 116.376 36.82 115.496 36.82C114.923 36.82 114.369 36.9267 113.836 37.14C113.316 37.34 112.763 37.6333 112.176 38.02L111.536 36.78C112.216 36.3133 112.896 35.9667 113.576 35.74C114.256 35.5 114.963 35.38 115.696 35.38C117.029 35.38 118.083 35.7533 118.856 36.5C119.629 37.2333 120.016 38.26 120.016 39.58V44C120.016 44.2133 120.056 44.3733 120.136 44.48C120.229 44.5733 120.376 44.6267 120.576 44.64V46C120.403 46.0267 120.249 46.0467 120.116 46.06C119.996 46.0733 119.896 46.08 119.816 46.08C119.403 46.08 119.089 45.9667 118.876 45.74C118.676 45.5133 118.563 45.2733 118.536 45.02L118.496 44.36C118.043 44.9467 117.449 45.4 116.716 45.72C115.983 46.04 115.256 46.2 114.536 46.2C113.843 46.2 113.223 46.06 112.676 45.78C112.129 45.4867 111.703 45.1 111.396 44.62C111.089 44.1267 110.936 43.58 110.936 42.98ZM117.736 43.72C117.896 43.5333 118.023 43.3467 118.116 43.16C118.209 42.96 118.256 42.7933 118.256 42.66V41.36C117.843 41.2 117.409 41.08 116.956 41C116.503 40.9067 116.056 40.86 115.616 40.86C114.723 40.86 113.996 41.04 113.436 41.4C112.889 41.7467 112.616 42.2267 112.616 42.84C112.616 43.1733 112.703 43.5 112.876 43.82C113.063 44.1267 113.329 44.38 113.676 44.58C114.036 44.78 114.476 44.88 114.996 44.88C115.543 44.88 116.063 44.7733 116.556 44.56C117.049 44.3333 117.443 44.0533 117.736 43.72ZM127.45 46.2C126.663 46.2 125.943 46.06 125.29 45.78C124.65 45.4867 124.09 45.0867 123.61 44.58C123.143 44.0733 122.777 43.4933 122.51 42.84C122.257 42.1867 122.13 41.4933 122.13 40.76C122.13 39.7733 122.35 38.8733 122.79 38.06C123.23 37.2467 123.85 36.6 124.65 36.12C125.45 35.6267 126.377 35.38 127.43 35.38C128.457 35.38 129.35 35.6133 130.11 36.08C130.883 36.5333 131.457 37.1467 131.83 37.92L130.11 38.46C129.843 37.9667 129.47 37.5867 128.99 37.32C128.51 37.04 127.977 36.9 127.39 36.9C126.75 36.9 126.163 37.0667 125.63 37.4C125.11 37.7333 124.697 38.1933 124.39 38.78C124.083 39.3533 123.93 40.0133 123.93 40.76C123.93 41.4933 124.083 42.16 124.39 42.76C124.71 43.3467 125.13 43.8133 125.65 44.16C126.183 44.5067 126.77 44.68 127.41 44.68C127.823 44.68 128.217 44.6067 128.59 44.46C128.977 44.3133 129.31 44.12 129.59 43.88C129.883 43.6267 130.083 43.3533 130.19 43.06L131.91 43.58C131.697 44.0867 131.37 44.54 130.93 44.94C130.503 45.3267 129.99 45.6333 129.39 45.86C128.803 46.0867 128.157 46.2 127.45 46.2ZM139.304 45.48C139.158 45.5467 138.958 45.6333 138.704 45.74C138.451 45.8467 138.158 45.94 137.824 46.02C137.491 46.1 137.138 46.14 136.764 46.14C136.338 46.14 135.944 46.0667 135.584 45.92C135.224 45.76 134.938 45.52 134.724 45.2C134.511 44.8667 134.404 44.4533 134.404 43.96V36.94H132.984V35.56H134.404V32.08H136.164V35.56H138.504V36.94H136.164V43.42C136.191 43.7933 136.318 44.0733 136.544 44.26C136.771 44.4333 137.038 44.52 137.344 44.52C137.691 44.52 138.011 44.46 138.304 44.34C138.598 44.22 138.791 44.1333 138.884 44.08L139.304 45.48ZM145.894 41.82V35.56H147.654V41.48C147.654 42.5467 147.841 43.3467 148.214 43.88C148.588 44.4133 149.141 44.68 149.874 44.68C150.354 44.68 150.814 44.58 151.254 44.38C151.708 44.1667 152.114 43.8667 152.474 43.48C152.834 43.0933 153.114 42.6333 153.314 42.1V35.56H155.074V44C155.074 44.2133 155.114 44.3733 155.194 44.48C155.288 44.5733 155.434 44.6267 155.634 44.64V46C155.434 46.0267 155.274 46.04 155.154 46.04C155.048 46.0533 154.941 46.06 154.834 46.06C154.501 46.06 154.214 45.96 153.974 45.76C153.734 45.5467 153.608 45.2867 153.594 44.98L153.554 43.76C153.101 44.5333 152.488 45.1333 151.714 45.56C150.954 45.9867 150.121 46.2 149.214 46.2C148.121 46.2 147.294 45.8333 146.734 45.1C146.174 44.3533 145.894 43.26 145.894 41.82ZM161.586 46.2C160.719 46.2 159.906 46.06 159.146 45.78C158.386 45.4867 157.733 45.0533 157.186 44.48L157.866 43.24C158.466 43.8 159.066 44.2 159.666 44.44C160.266 44.68 160.879 44.8 161.506 44.8C162.226 44.8 162.813 44.6667 163.266 44.4C163.719 44.12 163.946 43.7133 163.946 43.18C163.946 42.7933 163.826 42.5067 163.586 42.32C163.359 42.1333 163.033 41.98 162.606 41.86C162.179 41.7267 161.673 41.58 161.086 41.42C160.366 41.2067 159.759 40.98 159.266 40.74C158.773 40.5 158.399 40.2 158.146 39.84C157.893 39.48 157.766 39.0267 157.766 38.48C157.766 37.8133 157.939 37.2533 158.286 36.8C158.633 36.3333 159.106 35.98 159.706 35.74C160.319 35.5 161.013 35.38 161.786 35.38C162.559 35.38 163.259 35.5 163.886 35.74C164.513 35.98 165.053 36.3333 165.506 36.8L164.706 38.02C164.293 37.5933 163.839 37.28 163.346 37.08C162.853 36.8667 162.299 36.76 161.686 36.76C161.326 36.76 160.973 36.8067 160.626 36.9C160.279 36.98 159.993 37.1333 159.766 37.36C159.539 37.5733 159.426 37.88 159.426 38.28C159.426 38.6133 159.513 38.88 159.686 39.08C159.873 39.2667 160.139 39.4267 160.486 39.56C160.846 39.6933 161.279 39.84 161.786 40C162.573 40.2267 163.253 40.4533 163.826 40.68C164.413 40.9067 164.866 41.2 165.186 41.56C165.506 41.92 165.666 42.42 165.666 43.06C165.666 44.0467 165.293 44.82 164.546 45.38C163.799 45.9267 162.813 46.2 161.586 46.2Z" fill="black"/>
<g clip-path="url(#clip0_1323_450)">
<path d="M36.6648 40.9533L33.3881 36.5796C32.2549 35.067 31.8224 33.3784 32.0904 31.5137C32.3585 29.6491 33.2481 28.1501 34.7594 27.0167C36.2707 25.8833 37.9594 25.4508 39.8253 25.719C41.6913 25.9872 43.1903 26.8769 44.3224 28.388L47.599 32.7617L45.4122 34.4L42.1355 30.0263C41.4529 29.1152 40.5537 28.5796 39.4381 28.4196C38.3224 28.2596 37.3089 28.5209 36.3978 29.2035C35.4866 29.8862 34.951 30.7853 34.791 31.901C34.631 33.0167 34.8923 34.0301 35.575 34.9413L38.8516 39.315L36.6648 40.9533ZM38.581 34.3964L40.7678 32.7581L47.3211 41.5055L45.1342 43.1438L38.581 34.3964ZM38.3031 43.1402L40.4899 41.5019L43.7666 45.8755C44.4492 46.7867 45.3483 47.3223 46.464 47.4823C47.5797 47.6423 48.5931 47.381 49.5043 46.6983C50.4155 46.0157 50.9511 45.1166 51.1111 44.0009C51.2711 42.8852 51.0097 41.8718 50.3271 40.9606L47.0505 36.5869L49.2373 34.9486L52.514 39.3223C53.6471 40.8348 54.08 42.5238 53.8125 44.3892C53.545 46.2546 52.655 47.7533 51.1426 48.8852C49.6302 50.0171 47.9413 50.4499 46.0757 50.1837C44.2101 49.9175 42.7114 49.0275 41.5797 47.5139L38.3031 43.1402Z" fill="black"/>
</g>
<defs>
<filter id="filter0_d_1323_450" x="0" y="0" width="292" height="84" filterUnits="userSpaceOnUse" color-interpolation-filters="sRGB">
<feFlood flood-opacity="0" result="BackgroundImageFix"/>
<feColorMatrix in="SourceAlpha" type="matrix" values="0 0 0 0 0 0 0 0 0 0 0 0 0 0 0 0 0 0 127 0" result="hardAlpha"/>
<feOffset dx="5" dy="4"/>
<feGaussianBlur stdDeviation="10"/>
<feComposite in2="hardAlpha" operator="out"/>
<feColorMatrix type="matrix" values="0 0 0 0 0 0 0 0 0 0 0 0 0 0 0 0 0 0 0.5 0"/>
<feBlend mode="normal" in2="BackgroundImageFix" result="effect1_dropShadow_1323_450"/>
<feBlend mode="normal" in="SourceGraphic" in2="effect1_dropShadow_1323_450" result="shape"/>
</filter>
<clipPath id="clip0_1323_450">
<rect width="32.7897" height="32.7897" fill="white" transform="translate(46.2422 15) rotate(53.1606)"/>
</clipPath>
</defs>
</svg>
